<?xml version="1.0" encoding="UTF-8"?>
<svg id="_レイヤー_2" data-name="レイヤー 2" xmlns="http://www.w3.org/2000/svg" viewBox="0 0 2862.21 1353.97">
  <defs>
    <style>
      .cls-1 {
        fill: #fff;
        stroke-width: 0px;
      }
    </style>
  </defs>
  <g id="_レイヤー_2-2" data-name=" レイヤー 2">
    <g id="_レイヤー_3" data-name=" レイヤー 3">
      <g>
        <g>
          <g>
            <line class="cls-1" x1="16.39" y1="7.65" x2="263.7" y2="6.8"/>
            <path class="cls-1" d="M16.39,14.45c-3.74,0-6.79-3.03-6.8-6.78-.01-3.75,3.02-6.81,6.78-6.82l247.31-.85h.02c3.75,0,6.79,3.03,6.8,6.78.01,3.75-3.02,6.81-6.78,6.82l-247.31.85h-.02,0Z"/>
          </g>
          <g>
            <line class="cls-1" x1="14.69" y1="55.24" x2="263.7" y2="54.39"/>
            <path class="cls-1" d="M14.69,62.04c-3.75,0-6.79-3.03-6.8-6.78-.01-3.76,3.02-6.81,6.78-6.82l249.01-.85h.02c3.74,0,6.79,3.03,6.8,6.78.01,3.76-3.02,6.81-6.78,6.82l-249.01.85h-.02,0Z"/>
          </g>
          <g>
            <line class="cls-1" x1="14.69" y1="102.83" x2="263.7" y2="101.98"/>
            <path class="cls-1" d="M14.69,109.63c-3.75,0-6.79-3.03-6.8-6.78-.01-3.76,3.02-6.81,6.78-6.82l249.01-.85h.02c3.74,0,6.79,3.03,6.8,6.78.01,3.76-3.02,6.81-6.78,6.82l-249.01.85h-.02,0Z"/>
          </g>
          <g>
            <line class="cls-1" x1="14.69" y1="147.03" x2="263.7" y2="146.18"/>
            <path class="cls-1" d="M14.69,153.83c-3.75,0-6.79-3.03-6.8-6.78-.01-3.76,3.02-6.81,6.78-6.82l249.01-.85h.02c3.74,0,6.79,3.03,6.8,6.78.01,3.76-3.02,6.81-6.78,6.82l-249.01.85h-.02,0Z"/>
          </g>
          <g>
            <line class="cls-1" x1="14.69" y1="189.52" x2="263.7" y2="188.67"/>
            <path class="cls-1" d="M14.69,196.32c-3.75,0-6.79-3.03-6.8-6.78-.01-3.76,3.02-6.81,6.78-6.82l249.01-.85h.02c3.74,0,6.79,3.03,6.8,6.78.01,3.76-3.02,6.81-6.78,6.82l-249.01.85h-.02,0Z"/>
          </g>
          <g>
            <line class="cls-1" x1="493.17" y1="8.51" x2="744.73" y2="6.8"/>
            <path class="cls-1" d="M493.15,5.48c48.42-1.81,108.67-3.59,157.2-4.86,10.48-.34,20.97.62,31.46,1.23,20.73,1.24,42.28,2.83,62.93,4.69.14.01.25.14.24.28-.01.13-.11.22-.23.24-15.71,1.86-31.4,3.32-47.14,4.69l-15.71,1.24c-20.95,2.52-41.92,1.04-62.89.89-36.96-.66-89.34-1.47-125.8-2.35-3.76-.14-4.04-5.78-.04-6.06h-.02Z"/>
          </g>
          <path class="cls-1" d="M494.02,102.57c20.61-2,42.17-3.74,62.89-5.12,10.48-.68,20.96-1.72,31.45-1.44,21.08.28,72.6,1.64,94.34,2.09,18.37.36,44.31,1.15,62.89,1.71,1.67.05,2.99,1.44,2.94,3.12-.05,1.61-1.35,2.89-2.94,2.94-20.96.6-41.93,1.22-62.89,1.68l-62.89,1.52c-20.96.29-41.93,1.91-62.89-.46l-15.72-1.14c-15.74-1.26-31.45-2.62-47.17-4.37-.14-.01-.25-.14-.24-.28.01-.13.12-.22.24-.24h0Z"/>
          <path class="cls-1" d="M495.72,52.21c48.43-1.48,108.69-2.85,157.23-3.79,10.48-.27,20.96.76,31.45,1.44,20.72,1.39,42.26,3.12,62.89,5.12.14,0,.25.14.24.28-.01.13-.11.22-.24.24-15.72,1.75-31.43,3.11-47.17,4.37l-15.72,1.14c-20.96,2.38-41.93.75-62.89.46-36.95-.91-89.32-2.08-125.78-3.2-3.76-.17-4.01-5.81,0-6.06h-.01Z"/>
          <path class="cls-1" d="M495.72,146.77c25.39-2.57,52.04-4.45,77.55-6.2,15.5-.96,31.02.08,46.53.28,21.56.56,72.14,1.59,93.06,2.22l31.02.94c1.67.05,2.99,1.44,2.94,3.12-.05,1.61-1.35,2.89-2.94,2.94-20.68.6-41.36,1.22-62.04,1.68-20.68.5-73.1,1.79-93.06,2.3-14.37.64-32.13-1.52-46.53-2.38-15.53-1.26-31.03-2.62-46.53-4.37-.14,0-.25-.14-.23-.29.01-.12.11-.22.23-.23h0Z"/>
          <g>
            <line class="cls-1" x1="494.02" y1="189.52" x2="744.73" y2="188.67"/>
            <path class="cls-1" d="M494.02,189.26c20.54-2.07,42.02-3.88,62.66-5.33,10.44-.72,20.89-1.79,31.33-1.55,21.01.21,72.36,1.4,94.02,1.77,18.31.29,44.16,1,62.68,1.5,1.67.04,3,1.43,2.95,3.11-.04,1.61-1.34,2.9-2.93,2.95-20.89.67-41.78,1.36-62.67,1.9l-62.67,1.73c-20.89.36-41.78,2.05-62.68-.25l-15.67-1.08c-15.69-1.21-31.35-2.52-47.02-4.21-.14,0-.25-.14-.24-.28.01-.13.11-.22.23-.24h0v-.02Z"/>
          </g>
          <path class="cls-1" d="M493.17,451.87c21.03-2,43.03-3.74,64.17-5.12,10.69-.68,21.39-1.72,32.08-1.44,21.5.28,74.07,1.64,96.25,2.09,18.74.36,45.21,1.15,64.17,1.71,1.67.05,2.99,1.44,2.94,3.11-.04,1.61-1.35,2.9-2.95,2.95-21.39.6-42.78,1.22-64.17,1.68l-64.17,1.52c-21.39.29-42.78,1.91-64.17-.46l-16.04-1.14c-16.06-1.26-32.09-2.62-48.12-4.37-.14-.01-.25-.14-.24-.28.01-.13.12-.22.24-.24h0Z"/>
          <path class="cls-1" d="M493.17,501.17c21.03-2,43.03-3.74,64.17-5.12,10.69-.68,21.39-1.72,32.08-1.44,21.5.28,74.07,1.64,96.25,2.09,18.74.36,45.21,1.15,64.17,1.71,1.67.05,2.99,1.44,2.94,3.11-.04,1.61-1.35,2.9-2.95,2.95-21.39.6-42.78,1.22-64.17,1.68l-64.17,1.52c-21.39.29-42.78,1.91-64.17-.46l-16.04-1.14c-16.06-1.26-32.09-2.62-48.12-4.37-.14-.01-.25-.14-.24-.28.01-.13.12-.22.24-.24h0Z"/>
          <path class="cls-1" d="M493.17,547.69c49.41-1.48,110.9-2.85,160.41-3.79,10.69-.27,21.39.76,32.08,1.44,21.14,1.39,43.12,3.12,64.16,5.12.14.01.25.14.24.28-.01.13-.12.22-.24.24-16.04,1.75-32.06,3.11-48.12,4.37l-16.04,1.14c-21.39,2.38-42.78.75-64.17.46-37.7-.91-91.14-2.08-128.33-3.2-3.76-.17-4.01-5.81,0-6.06h.01Z"/>
          <path class="cls-1" d="M493.17,596.98c49.41-1.48,110.9-2.85,160.41-3.79,10.69-.27,21.39.76,32.08,1.44,21.14,1.39,43.12,3.12,64.16,5.12.14.01.25.14.24.28-.01.13-.12.22-.24.24-16.04,1.75-32.06,3.11-48.12,4.37l-16.04,1.14c-21.39,2.38-42.78.75-64.17.46-37.7-.91-91.14-2.08-128.33-3.2-3.76-.17-4.01-5.81,0-6.06h.01Z"/>
          <path class="cls-1" d="M491.47,641.17c49.74-1.48,111.63-2.85,161.48-3.79,10.77-.27,21.53.76,32.3,1.44,21.28,1.38,43.4,3.12,64.59,5.12.14.01.25.14.24.28-.01.13-.12.22-.24.24-16.14,1.75-32.28,3.11-48.44,4.37l-16.15,1.14c-21.53,2.38-43.06.75-64.59.46-37.95-.91-91.74-2.08-129.18-3.2-3.75-.17-4.01-5.81,0-6.06h0Z"/>
          <path class="cls-1" d="M.24,271.7c92.6-2.58,186.5-5.97,279.18-6.56,142.38.93,323.08,2.35,465.31,3.8,1.67.01,3.02,1.38,3,3.06-.01,1.65-1.36,2.99-3,3-69.76.6-403.35,3.43-465.3,3.97-43.04.64-96.35-1.52-139.59-2.37-46.54-1.22-93.06-2.69-139.59-4.37-.14,0-.26-.13-.25-.27,0-.14.12-.25.25-.25h-.01Z"/>
          <g>
            <line class="cls-1" x1="1.09" y1="232.01" x2="745.58" y2="232.02"/>
            <path class="cls-1" d="M1.09,231.75c92.6-2.58,186.5-5.97,279.18-6.56,142.38.93,323.08,2.35,465.31,3.8,1.67,0,3.02,1.38,3,3.06-.01,1.65-1.36,2.99-3,3-69.76.6-403.35,3.43-465.3,3.97-43.04.64-96.35-1.52-139.59-2.37-46.54-1.22-93.06-2.69-139.59-4.37-.14,0-.26-.13-.25-.27,0-.14.12-.25.25-.25h0Z"/>
          </g>
          <g>
            <line class="cls-1" x1="7.05" y1="314.48" x2="744.74" y2="316.15"/>
            <path class="cls-1" d="M7.05,314.22c91.76-2.38,184.81-5.56,276.65-5.94,141.08,1.25,320.12,3.07,461.04,4.84,1.67.02,3.01,1.39,3,3.06-.02,1.65-1.36,2.98-3.01,3-69.12.44-399.67,2.53-461.06,2.93-42.65.55-95.46-1.73-138.31-2.69-46.11-1.32-92.21-2.9-138.31-4.69-.14,0-.26-.13-.25-.27,0-.14.12-.25.25-.25h0Z"/>
          </g>
          <path class="cls-1" d="M7.04,358.39c91.75-2.58,184.8-5.98,276.63-6.57,141.08.93,320.13,2.34,461.05,3.79,1.67.01,3.02,1.38,3,3.06-.01,1.65-1.36,2.99-3,3-69.12.6-399.66,3.44-461.05,3.98-42.65.64-95.47-1.52-138.32-2.37-46.11-1.22-92.21-2.69-138.32-4.37-.14,0-.26-.13-.25-.27,0-.14.12-.25.25-.25h.01Z"/>
          <g>
            <line class="cls-1" x1="7.05" y1="401.14" x2="744.73" y2="402.83"/>
            <path class="cls-1" d="M7.05,400.88c91.76-2.37,184.81-5.55,276.64-5.93,141.08,1.25,320.12,3.08,461.04,4.85,1.67.02,3.02,1.39,3,3.06-.02,1.65-1.36,2.98-3.01,3-69.12.44-399.67,2.52-461.06,2.92-42.65.55-95.46-1.74-138.31-2.69-46.11-1.33-92.21-2.9-138.3-4.69-.14,0-.26-.13-.25-.27,0-.14.12-.25.25-.25h0Z"/>
          </g>
          <g>
            <line class="cls-1" x1="14.69" y1="452.98" x2="263.7" y2="452.14"/>
            <path class="cls-1" d="M14.69,459.78c-3.74,0-6.79-3.03-6.8-6.78s3.02-6.81,6.78-6.82l249.01-.84h.02c3.74,0,6.79,3.03,6.8,6.78.01,3.75-3.02,6.81-6.78,6.82l-249.01.84h-.02,0Z"/>
          </g>
          <g>
            <line class="cls-1" x1="14.69" y1="500.58" x2="263.7" y2="501.42"/>
            <path class="cls-1" d="M14.69,500.32c25.49-2.49,52.23-4.27,77.84-5.94,15.56-.9,31.13.18,46.69.44,21.63.63,72.38,1.84,93.37,2.54l31.12,1.04c1.67.05,2.99,1.45,2.93,3.13-.05,1.61-1.36,2.89-2.95,2.93-20.75.53-41.51,1.07-62.26,1.47-20.75.43-73.36,1.54-93.39,1.98-14.42.59-32.23-1.63-46.68-2.54-15.58-1.31-31.12-2.73-46.68-4.53-.14-.01-.25-.14-.23-.29.01-.12.11-.22.23-.23h.01Z"/>
          </g>
          <g>
            <line class="cls-1" x1="14.69" y1="651.85" x2="263.7" y2="652.7"/>
            <path class="cls-1" d="M263.7,659.5h-.02l-249.01-.85c-3.75-.01-6.79-3.07-6.78-6.82.01-3.75,3.05-6.78,6.8-6.78h.02l249.01.85c3.75.01,6.79,3.07,6.78,6.82s-3.05,6.78-6.8,6.78h0Z"/>
          </g>
          <path class="cls-1" d="M7.07,604.85c21.45-2,43.88-3.74,65.43-5.12,10.91-.68,21.81-1.72,32.72-1.45,21.93.28,75.53,1.64,98.15,2.09,19.12.36,46.1,1.15,65.43,1.71,1.67.05,2.99,1.44,2.95,3.11-.04,1.61-1.35,2.9-2.95,2.95-21.81.6-43.62,1.22-65.43,1.69l-65.43,1.52c-21.81.29-43.62,1.91-65.43-.46l-16.36-1.14c-16.38-1.26-32.72-2.62-49.07-4.37-.14-.01-.25-.14-.24-.28.01-.13.12-.22.24-.24h-.01Z"/>
          <path class="cls-1" d="M8.77,552.16c21.31-2,43.59-3.74,65.01-5.12,10.84-.68,21.67-1.72,32.5-1.45,21.78.28,75.04,1.64,97.51,2.09,18.99.36,45.8,1.15,65.01,1.71,1.67.05,2.99,1.44,2.95,3.11-.04,1.61-1.35,2.9-2.95,2.95-21.67.6-43.34,1.22-65.01,1.69l-65.01,1.52c-21.67.29-43.34,1.91-65.01-.46l-16.25-1.14c-16.27-1.26-32.51-2.62-48.76-4.37-.14-.01-.25-.14-.24-.28.01-.13.12-.22.24-.24h.01Z"/>
          <path class="cls-1" d="M1345.59,22.95h-343.35c-3.75,0-6.8-3.04-6.8-6.8s3.04-6.8,6.8-6.8h343.35c3.75,0,6.8,3.04,6.8,6.8s-3.04,6.8-6.8,6.8Z"/>
          <path class="cls-1" d="M1359.19,67.14h-372.24c-3.75,0-6.8-3.04-6.8-6.8s3.04-6.8,6.8-6.8h372.24c3.75,0,6.8,3.04,6.8,6.8s-3.04,6.8-6.8,6.8Z"/>
          <path class="cls-1" d="M971.65,103.2c77.89-1.48,174.79-2.85,252.84-3.79,16.86-.27,33.71.76,50.57,1.44,33.29,1.38,67.95,3.12,101.14,5.12.14,0,.25.13.24.27,0,.13-.12.24-.24.24-41.41,2.84-84.85,4.86-126.42,6.62-16.91.7-58.36-.56-75.85-.68l-202.27-3.18c-1.67-.03-3.01-1.4-2.98-3.08.03-1.64,1.35-2.96,2.98-2.98h0v.02Z"/>
          <path class="cls-1" d="M950.41,149.95c85.74-1.48,192.42-2.85,278.33-3.79,55.42.46,111.64,3.91,167,6.57.14,0,.25.13.25.27,0,.13-.12.24-.25.25-45.6,2.84-93.41,4.86-139.17,6.62-18.61.7-64.24-.56-83.5-.68l-222.67-3.18c-1.67-.02-3.01-1.4-2.99-3.07.02-1.64,1.35-2.96,2.99-2.99h.01Z"/>
          <g>
            <line class="cls-1" x1="933.4" y1="193.77" x2="1409.33" y2="195.47"/>
            <path class="cls-1" d="M933.4,193.51c59.17-2.45,119.27-5.68,178.5-5.93,39.87.42,137.35,2.13,178.47,2.72,34.75.48,83.82,1.45,118.98,2.13,1.67.03,3.01,1.41,2.98,3.09-.03,1.64-1.37,2.95-3,2.97-44.58.44-257.87,2.52-297.47,2.91-27.53.54-61.59-1.74-89.23-2.69-29.75-1.33-59.48-2.91-89.22-4.69-.14,0-.25-.13-.25-.27,0-.13.12-.24.25-.25h0Z"/>
          </g>
          <path class="cls-1" d="M919.82,242.81c62.68-2.64,127.22-6.11,189.95-6.56,97.77.95,218.99,2.31,316.58,3.8,1.68.02,3.02,1.4,2.99,3.08-.02,1.64-1.36,2.96-2.99,2.99-47.45.6-274.43,3.44-316.58,3.97-29.29.64-65.55-1.52-94.97-2.37-31.67-1.22-63.32-2.69-94.97-4.37-.14,0-.25-.13-.25-.27,0-.13.12-.24.25-.25h0v-.02Z"/>
          <path class="cls-1" d="M1100.83,293.21h-190.37c-3.75,0-6.8-3.04-6.8-6.8s3.04-6.8,6.8-6.8h190.37c3.75,0,6.8,3.04,6.8,6.8s-3.04,6.8-6.8,6.8Z"/>
          <g>
            <line class="cls-1" x1="1227.49" y1="287.26" x2="1443.36" y2="288.96"/>
            <path class="cls-1" d="M1227.52,284.23c30.63-.95,76.92-1.7,107.96-2.3,13.49-.1,27-1.02,40.48.04,12.52,1.12,28.01,2.4,40.45,3.74,8.99.89,17.98,1.89,26.96,3,.14.02.25.15.23.29-.02.12-.12.21-.23.23-9,1.1-18.01,2.04-27.01,2.84-12.42,1.24-27.98,2.3-40.5,3.26-9.04.62-31.13-.79-40.47-.98l-53.96-1.94c-17.99-.61-35.97-1.37-53.95-2.11-3.77-.23-3.92-5.82.05-6.06h-.01Z"/>
          </g>
          <path class="cls-1" d="M1237.66,330.12c31.1-1.19,78.11-2.31,109.63-3.15,13.71-.2,27.42-1.24,41.11-.28,12.72,1.02,28.47,2.18,41.11,3.42,9.14.82,18.27,1.74,27.41,2.79.14.02.25.15.23.29-.01.12-.11.22-.23.23-9.14,1.17-18.27,2.18-27.41,3.05-12.61,1.34-28.4,2.52-41.11,3.58-4.57.33-9.14.28-13.7.12-17.45-.51-64.2-1.8-82.23-2.3-18.27-.47-36.54-1.09-54.82-1.68-3.77-.19-3.97-5.8,0-6.06h0Z"/>
          <path class="cls-1" d="M1077.03,384.99h-197.17c-3.75,0-6.8-3.04-6.8-6.8s3.04-6.8,6.8-6.8h197.17c3.75,0,6.8,3.04,6.8,6.8s-3.04,6.8-6.8,6.8Z"/>
          <path class="cls-1" d="M1088.93,339.1h-193.77c-3.75,0-6.8-3.04-6.8-6.8s3.04-6.8,6.8-6.8h193.77c3.75,0,6.8,3.04,6.8,6.8s-3.04,6.8-6.8,6.8Z"/>
          <path class="cls-1" d="M1066.83,429.19h-202.27c-3.75,0-6.8-3.04-6.8-6.8s3.04-6.8,6.8-6.8h202.27c3.75,0,6.8,3.04,6.8,6.8s-3.04,6.8-6.8,6.8Z"/>
          <path class="cls-1" d="M1247.85,376.01c31.82-1.19,79.93-2.31,112.18-3.15,14.02-.2,28.05-1.24,42.07-.28,13.02,1.02,29.13,2.18,42.07,3.42,9.35.82,18.7,1.74,28.05,2.79.14.02.25.15.23.29-.01.12-.11.22-.23.23-9.35,1.17-18.7,2.18-28.05,3.05-8.02.85-19.87,1.81-28.05,2.46l-14.02,1.12c-9.39.69-32.36-.55-42.07-.66-32.95-.91-79.67-2.08-112.18-3.2-3.77-.19-3.97-5.8,0-6.06h0Z"/>
          <g>
            <line class="cls-1" x1="1264" y1="422.39" x2="1492.62" y2="423.24"/>
            <path class="cls-1" d="M1264.01,419.36c32.43-1.07,81.45-2,114.32-2.73,14.29-.15,28.59-1.13,42.87-.12,13.26,1.07,29.68,2.29,42.85,3.58,9.52.86,19.05,1.81,28.57,2.89.14.02.25.15.23.29-.01.12-.11.22-.23.23-9.53,1.13-19.06,2.11-28.59,2.95-8.17.82-20.25,1.73-28.59,2.35l-14.29,1.07c-9.57.66-32.97-.67-42.86-.82-33.57-1.04-81.17-2.38-114.3-3.63-3.76-.2-3.96-5.81.02-6.06h0Z"/>
          </g>
          <path class="cls-1" d="M1496.87,475.08h-647.6c-3.75,0-6.8-3.04-6.8-6.8s3.04-6.8,6.8-6.8h647.6c3.75,0,6.8,3.04,6.8,6.8s-3.04,6.8-6.8,6.8Z"/>
          <path class="cls-1" d="M1513.86,519.27h-679.9c-3.75,0-6.8-3.04-6.8-6.8s3.04-6.8,6.8-6.8h679.9c3.75,0,6.8,3.04,6.8,6.8s-3.04,6.8-6.8,6.8Z"/>
          <g>
            <line class="cls-1" x1="814.42" y1="557.52" x2="1532.56" y2="558.37"/>
            <path class="cls-1" d="M814.42,554.49c137.14-1.29,311.54-2.5,448.84-3.26,89.39.96,180.54,3.71,269.55,7.15,0,.14-.12.25-.25.25-73.55,2.75-150.67,4.69-224.43,6.36-30.03.67-103.59-.68-134.65-.84l-359.07-3.6c-1.67-.02-3.02-1.39-3-3.06.02-1.65,1.36-2.98,3.01-3h0Z"/>
          </g>
          <g>
            <line class="cls-1" x1="799.13" y1="603.41" x2="1550.42" y2="605.11"/>
            <path class="cls-1" d="M799.13,600.38c143.47-1.13,325.92-2.13,469.56-2.73,93.51,1.12,188.84,3.89,281.97,7.47,0,.14-.12.25-.25.25-76.95,2.66-157.63,4.51-234.79,6.09-31.42.63-108.37-.8-140.87-.99l-375.64-4.03c-1.67-.02-3.02-1.39-3-3.06.02-1.65,1.36-2.98,3.01-3h.01Z"/>
          </g>
          <g>
            <line class="cls-1" x1="784.67" y1="643.35" x2="1018.39" y2="642.5"/>
            <path class="cls-1" d="M784.67,643.09c23.9-2.66,48.99-4.63,73.01-6.47,14.6-1.01,29.21-.03,43.82.12,20.31.49,67.94,1.35,87.65,1.9l29.22.83c1.67.05,2.99,1.44,2.95,3.11-.04,1.61-1.34,2.89-2.93,2.95-19.47.67-38.95,1.36-58.42,1.9-19.47.58-68.84,2.04-87.63,2.62-13.54.69-30.27-1.41-43.83-2.22-14.63-1.21-29.23-2.52-43.84-4.21-.14-.01-.25-.14-.23-.29.01-.12.11-.22.23-.23h0Z"/>
          </g>
          <g>
            <line class="cls-1" x1="1318.39" y1="645.05" x2="1564.86" y2="646.75"/>
            <path class="cls-1" d="M1564.86,653.55h-.05l-246.46-1.7c-3.75-.03-6.78-3.09-6.75-6.85.03-3.74,3.06-6.75,6.8-6.75h.05l246.46,1.7c3.75.03,6.78,3.09,6.75,6.85-.03,3.74-3.06,6.75-6.8,6.75Z"/>
          </g>
          <g>
            <line class="cls-1" x1="1610.8" y1="102.85" x2="2209.1" y2="101.15"/>
            <path class="cls-1" d="M1610.8,102.59c74.41-2.8,149.86-6.4,224.35-7.2,114.43.6,259.65,1.61,373.95,2.73,1.68.01,3.02,1.38,3.01,3.06-.02,1.65-1.35,2.98-2.99,3-55.99.76-324.19,4.36-373.93,5.04-34.6.74-77.43-1.3-112.19-2.05-37.41-1.11-74.8-2.48-112.19-4.05-.14,0-.25-.13-.25-.27s.11-.24.25-.25h-.01Z"/>
          </g>
          <g>
            <line class="cls-1" x1="1610.76" y1="55.24" x2="2209.06" y2="56.93"/>
            <path class="cls-1" d="M2209.06,63.73h-.02l-598.3-1.69c-3.75,0-6.79-3.06-6.78-6.82.01-3.75,3.05-6.78,6.8-6.78h.02l598.3,1.69c3.75,0,6.79,3.06,6.78,6.82-.01,3.75-3.05,6.78-6.8,6.78Z"/>
          </g>
          <g>
            <line class="cls-1" x1="1610.76" y1="11.05" x2="2209.06" y2="12.74"/>
            <path class="cls-1" d="M2209.06,19.54h-.02l-598.3-1.69c-3.75-.01-6.79-3.06-6.78-6.82.01-3.75,3.05-6.78,6.8-6.78h.02l598.3,1.69c3.75.01,6.79,3.06,6.78,6.82-.01,3.75-3.05,6.78-6.8,6.78Z"/>
          </g>
          <path class="cls-1" d="M1606.5,147.62c76.11-2.58,153.28-5.97,229.47-6.57,117.03.93,265.55,2.35,382.44,3.8,1.68.02,3.02,1.39,3,3.07-.02,1.65-1.36,2.97-3,2.99-57.26.6-331.57,3.44-382.44,3.98-35.39.64-79.18-1.52-114.73-2.37-38.25-1.22-76.49-2.69-114.73-4.37-.14,0-.25-.13-.25-.27s.12-.24.25-.25h-.01Z"/>
          <path class="cls-1" d="M1606.5,185.64c116.85-1.45,265.45-2.87,382.44-3.79,12.75-.12,25.5.04,38.24.36,63.33,2.26,128.54,3.14,191.47,6.47,0,.14-.12.24-.25.25-62.66,2.84-128.37,4.86-191.22,6.62-25.53.7-88.31-.56-114.73-.68l-305.95-3.18c-1.67-.02-3.02-1.39-3-3.06.02-1.65,1.35-2.98,3-3h0Z"/>
          <path class="cls-1" d="M1851.26,234.93c60.87-1.48,136.6-2.85,197.6-3.79,13.17-.27,26.35.76,39.52,1.44,26.03,1.38,53.11,3.12,79.04,5.12.14,0,.25.14.24.28,0,.13-.12.23-.24.24-19.76,1.75-39.5,3.11-59.28,4.37l-19.76,1.14c-45.7,3.16-111.67-.98-158.08-1.05-26.35-.47-52.69-1.09-79.04-1.69-3.7-.13-4.12-5.77,0-6.06h0Z"/>
          <path class="cls-1" d="M1803.67,279.13c61.2-1.48,137.34-2.85,198.66-3.79,13.24-.27,26.49.76,39.73,1.44,26.17,1.38,53.39,3.12,79.46,5.12.14.01.25.14.24.28,0,.13-.12.23-.24.24-19.86,1.75-39.72,3.11-59.6,4.37l-19.87,1.14c-45.95,3.16-112.27-.98-158.93-1.05-26.49-.47-52.98-1.09-79.46-1.69-3.7-.13-4.13-5.77,0-6.06h.01Z"/>
          <path class="cls-1" d="M1752.68,327.79c25.91-2,53.01-3.74,79.04-5.12,13.17-.68,26.35-1.72,39.52-1.44,26.49.28,91.24,1.64,118.56,2.09,23.09.36,55.68,1.15,79.04,1.71,1.67.04,3,1.43,2.96,3.1-.04,1.62-1.35,2.92-2.96,2.96-26.35.6-52.69,1.22-79.04,1.68-46.67.07-112.13,4.21-158.08,1.06l-19.76-1.14c-19.78-1.26-39.52-2.62-59.28-4.37-.14-.01-.25-.14-.24-.28,0-.13.12-.23.24-.24h0Z"/>
          <g>
            <line class="cls-1" x1="1704.24" y1="373.1" x2="2021.24" y2="372.25"/>
            <path class="cls-1" d="M1704.24,379.9c-3.75,0-6.79-3.03-6.8-6.78,0-3.75,3.03-6.81,6.78-6.82l317-.85h.02c3.75,0,6.79,3.03,6.8,6.78,0,3.75-3.03,6.81-6.78,6.82l-317,.85h-.02Z"/>
          </g>
          <path class="cls-1" d="M1973.65,424.94h-316.15c-3.75,0-6.8-3.04-6.8-6.8s3.04-6.8,6.8-6.8h316.15c3.75,0,6.8,3.04,6.8,6.8s-3.04,6.8-6.8,6.8Z"/>
          <g>
            <line class="cls-1" x1="1610.76" y1="463.18" x2="2210.77" y2="464.88"/>
            <path class="cls-1" d="M1610.76,462.92c74.63-2.37,150.32-5.55,225.02-5.93,114.75,1.25,260.38,3.08,375,4.86,1.68.02,3.01,1.4,2.99,3.08-.03,1.65-1.37,2.97-3.01,2.98-56.15.44-325.13,2.52-375.02,2.91-34.7.54-77.64-1.74-112.5-2.69-37.51-1.33-75-2.91-112.49-4.69-.14,0-.25-.13-.25-.27s.12-.24.25-.25h.01Z"/>
          </g>
          <g>
            <line class="cls-1" x1="1612.46" y1="509.08" x2="2210.77" y2="510.78"/>
            <path class="cls-1" d="M1612.46,508.82c74.42-2.37,149.89-5.55,224.39-5.93,114.42,1.25,259.64,3.08,373.93,4.86,1.68.02,3.01,1.4,2.99,3.08-.03,1.65-1.37,2.97-3.01,2.98-55.99.44-324.21,2.52-373.96,2.91-34.61.54-77.42-1.74-112.18-2.69-37.4-1.33-74.78-2.91-112.17-4.69-.14,0-.25-.13-.25-.27s.12-.24.25-.25h.01Z"/>
          </g>
          <path class="cls-1" d="M1606.5,552.79c115.88-1.45,263.24-2.87,379.26-3.79,12.64-.12,25.28.04,37.93.36,62.8,2.26,127.48,3.14,189.88,6.47,0,.14-.12.24-.25.25-62.14,2.84-127.3,4.86-189.63,6.62-25.32.7-87.57-.56-113.78-.68l-303.4-3.18c-1.67-.02-3.02-1.39-3-3.06.02-1.65,1.36-2.98,3-3h-.01Z"/>
          <path class="cls-1" d="M2213.31,606.81h-606.81c-3.75,0-6.8-3.04-6.8-6.8s3.04-6.8,6.8-6.8h606.81c3.75,0,6.8,3.04,6.8,6.8s-3.04,6.8-6.8,6.8Z"/>
          <path class="cls-1" d="M2215.01,652.7h-606.81c-3.75,0-6.8-3.04-6.8-6.8s3.04-6.8,6.8-6.8h606.81c3.75,0,6.8,3.04,6.8,6.8s-3.04,6.8-6.8,6.8Z"/>
          <path class="cls-1" d="M2854.11,18.7h-566.02c-3.75,0-6.8-3.04-6.8-6.8s3.04-6.8,6.8-6.8h566.02c3.75,0,6.8,3.04,6.8,6.8s-3.04,6.8-6.8,6.8Z"/>
          <path class="cls-1" d="M2288.1,53.06c108.98-1.48,244.56-2.85,353.76-3.79,11.79-.12,23.58.04,35.38.36,58.58,2.26,118.95,3.14,177.13,6.47,0,.14-.12.24-.25.25-57.96,2.84-118.74,4.86-176.88,6.62-23.61.7-81.68-.56-106.13-.68l-283.01-3.18c-1.67-.02-3.01-1.39-3-3.06.02-1.65,1.35-2.98,3-3h0Z"/>
          <path class="cls-1" d="M2283.85,101.5c108.9-1.45,247.38-2.87,356.42-3.79,11.88-.12,23.76.04,35.64.36,59.02,2.26,119.84,3.14,178.46,6.47,0,.14-.12.24-.25.25-58.39,2.84-119.63,4.86-178.21,6.62-23.79.7-82.3-.56-106.92-.68l-285.13-3.18c-1.67-.02-3.02-1.39-3-3.06.02-1.65,1.35-2.98,3-3h-.01Z"/>
          <path class="cls-1" d="M2283.85,150.17c71.56-2.58,144.12-5.97,215.76-6.57,110.04.93,249.69,2.35,359.6,3.8,1.68.02,3.02,1.39,3,3.07-.02,1.65-1.36,2.97-3,2.99-53.84.6-311.77,3.44-359.6,3.98-33.28.64-74.45-1.52-107.88-2.37-35.97-1.22-71.92-2.69-107.88-4.37-.14,0-.25-.13-.25-.27s.12-.24.25-.25h0Z"/>
          <path class="cls-1" d="M2283.85,507.74c108.9-1.45,247.38-2.87,356.42-3.79,11.88-.12,23.76.04,35.64.36,59.02,2.26,119.84,3.14,178.46,6.47,0,.14-.12.24-.25.25-58.39,2.84-119.63,4.86-178.21,6.62-23.79.7-82.3-.56-106.92-.68l-285.13-3.18c-1.67-.02-3.02-1.39-3-3.06.02-1.65,1.35-2.98,3-3h-.01Z"/>
          <path class="cls-1" d="M2854.11,560.07h-570.26c-3.75,0-6.8-3.04-6.8-6.8s3.04-6.8,6.8-6.8h570.26c3.75,0,6.8,3.04,6.8,6.8s-3.04,6.8-6.8,6.8Z"/>
          <g>
            <line class="cls-1" x1="2283.85" y1="600.86" x2="2860.91" y2="600.01"/>
            <path class="cls-1" d="M2283.85,597.83c110.2-1.61,250.33-3.24,360.66-4.33,12.02-.14,24.04,0,36.07.31,59.72,2.17,121.26,2.96,180.59,6.21,0,.14-.12.24-.25.25-59.09,2.93-121.05,5.04-180.32,6.89-24.07.74-83.28-.43-108.2-.52l-288.54-2.75c-1.67-.02-3.02-1.39-3-3.06.02-1.65,1.35-2.98,2.99-3h0Z"/>
          </g>
          <path class="cls-1" d="M2854.11,651h-566.02c-3.75,0-6.8-3.04-6.8-6.8s3.04-6.8,6.8-6.8h566.02c3.75,0,6.8,3.04,6.8,6.8s-3.04,6.8-6.8,6.8Z"/>
          <path class="cls-1" d="M2283,237.7c22.71-2,46.45-3.74,69.26-5.12,11.54-.68,23.09-1.72,34.63-1.44,23.21.28,79.96,1.64,103.9,2.09,20.23.36,48.8,1.15,69.27,1.71,1.67.04,2.99,1.44,2.95,3.11-.04,1.62-1.35,2.91-2.95,2.95-23.09.6-46.18,1.22-69.26,1.68l-69.26,1.52c-23.09.29-46.18,1.91-69.26-.46l-17.32-1.14c-17.33-1.26-34.64-2.62-51.95-4.37-.14,0-.25-.14-.24-.28.01-.13.12-.23.24-.24h0Z"/>
          <path class="cls-1" d="M2560.06,198.87h-277.06c-3.75,0-6.8-3.04-6.8-6.8s3.04-6.8,6.8-6.8h277.06c3.75,0,6.8,3.04,6.8,6.8s-3.04,6.8-6.8,6.8Z"/>
          <path class="cls-1" d="M2542.21,425.79h-254.96c-3.75,0-6.8-3.04-6.8-6.8s3.04-6.8,6.8-6.8h254.96c3.75,0,6.8,3.04,6.8,6.8s-3.04,6.8-6.8,6.8Z"/>
          <path class="cls-1" d="M2542.21,468.28h-254.96c-3.75,0-6.8-3.04-6.8-6.8s3.04-6.8,6.8-6.8h254.96c3.75,0,6.8,3.04,6.8,6.8s-3.04,6.8-6.8,6.8Z"/>
          <g>
            <line class="cls-1" x1="2283.85" y1="283.01" x2="2701.14" y2="282.16"/>
            <path class="cls-1" d="M2283.85,282.75c34.2-2.07,69.98-3.88,104.31-5.33,17.39-.72,34.77-1.79,52.16-1.55,34.95.21,120.43,1.4,156.49,1.77,30.47.29,73.5,1,104.33,1.49,1.67.02,3.02,1.4,2.99,3.08-.03,1.64-1.35,2.95-2.98,2.98-39.09.68-226.08,3.9-260.8,4.51-24.14.69-54.01-1.41-78.25-2.21-26.09-1.17-52.17-2.59-78.25-4.21-.14,0-.25-.13-.25-.27,0-.13.11-.24.24-.25h.01Z"/>
          </g>
          <g>
            <line class="cls-1" x1="2283.85" y1="328.91" x2="2821.82" y2="329.75"/>
            <path class="cls-1" d="M2283.85,325.88c103.58-1.32,232.45-2.48,336.24-3.27,66.62.56,135.16,4.14,201.73,6.88.14,0,.25.13.25.27s-.12.24-.25.25c-55.09,2.75-112.86,4.69-168.13,6.36-22.49.67-77.61-.68-100.87-.83l-268.98-3.6c-1.67-.02-3.01-1.4-2.99-3.07.02-1.65,1.36-2.97,3-2.99h0Z"/>
          </g>
          <g>
            <line class="cls-1" x1="2283.85" y1="373.1" x2="2707.94" y2="372.25"/>
            <path class="cls-1" d="M2283.85,372.84c34.76-2.07,71.12-3.88,106.01-5.33,17.67-.72,35.34-1.79,53.01-1.55,35.52.21,122.39,1.4,159.04,1.77,30.97.29,74.7,1,106.03,1.5,1.67.02,3.02,1.4,2.99,3.08-.03,1.64-1.35,2.95-2.98,2.98-39.72.68-229.76,3.9-265.05,4.51-24.53.69-54.89-1.41-79.52-2.21-26.52-1.17-53.02-2.59-79.53-4.21-.14,0-.25-.13-.25-.27,0-.13.12-.24.25-.25h0v-.02Z"/>
          </g>
        </g>
        <g>
          <path class="cls-1" d="M735.98,1152.62c-2.54-7.08-6.01-14.25-10.39-21.52-4.39-7.26-9.99-13.85-16.8-19.79-6.81-5.93-14.84-10.76-24.07-14.48-9.24-3.72-20.09-5.58-32.55-5.58-15.93,0-30.25,2.48-42.94,7.44-12.7,4.96-23.44,11.69-32.21,20.19-8.78,8.5-15.47,18.42-20.09,29.75-4.62,11.33-6.93,23.38-6.93,36.12,0,17.36,2.94,33.78,8.83,49.27,5.89,15.5,14.2,29.09,24.93,40.77,10.74,11.69,23.66,20.94,38.79,27.76,15.12,6.82,32.04,10.23,50.74,10.23,16.39,0,30.65-1.99,42.77-5.98s22.62-9.34,31.52-16.07c8.88-6.73,16.56-14.56,23.03-23.51,6.46-8.94,12.23-18.37,17.32-28.29l21.12,6.64c-6.01,17-14.08,32.23-24.24,45.69s-22.11,24.84-35.84,34.13c-13.74,9.3-29.21,16.38-46.41,21.25-17.2,4.87-35.84,7.3-55.93,7.3-23.32,0-45.14-3.5-65.46-10.49s-37.98-16.6-52.99-28.82-26.9-26.47-35.67-42.77c-8.78-16.29-13.16-33.73-13.16-52.33,0-13.63,2.19-26.78,6.58-39.45,4.38-12.66,10.56-24.48,18.53-35.46,7.96-10.98,17.54-20.98,28.75-30.02,11.2-9.03,23.6-16.78,37.23-23.24,13.62-6.46,28.23-11.46,43.81-15.01,15.58-3.54,31.8-5.31,48.66-5.31,14.08,0,27.59,1.24,40.52,3.72s24.82,5.98,35.67,10.49c10.85,4.52,20.43,10.09,28.75,16.73,8.31,6.64,14.77,14.04,19.39,22.18l-51.26,28.42v.04Z"/>
          <path class="cls-1" d="M1009.23,1348.62c-26.44,0-50.76-3.52-72.94-10.57-22.19-7.05-41.34-16.63-57.48-28.75s-28.74-26.3-37.82-42.54-13.61-33.64-13.61-52.21,4.54-37.68,13.61-54.79c9.08-17.1,21.68-32.01,37.82-44.73,16.13-12.72,35.29-22.73,57.48-30.04,22.18-7.3,46.5-10.96,72.94-10.96s50.36,3.35,72.44,10.05c22.07,6.7,41.18,15.9,57.31,27.59s28.74,25.39,37.82,41.12,13.61,32.61,13.61,50.66c0,19.94-4.54,38.72-13.61,56.33-9.08,17.62-21.68,33-37.82,46.15s-35.24,23.55-57.31,31.2c-22.07,7.65-46.22,11.47-72.44,11.47v.02ZM1022.34,1329.28c13.45,0,25.77-2.66,36.98-7.99,11.2-5.33,20.84-12.5,28.91-21.53s14.34-19.46,18.82-31.32,6.72-24.4,6.72-37.64c0-19.08-2.13-36.95-6.39-53.62s-11.21-31.2-20.84-43.57c-9.64-12.38-22.18-22.13-37.65-29.26-15.46-7.13-34.29-10.7-56.47-10.7-11.43,0-22.52,2.54-33.28,7.61s-20.23,11.99-28.4,20.75c-8.18,8.77-14.74,19.04-19.66,30.81-4.93,11.77-7.39,24.28-7.39,37.51,0,19.25,2.63,37.3,7.9,54.14,5.26,16.85,12.99,31.54,23.19,44.09,10.19,12.55,22.63,22.47,37.31,29.78,14.67,7.31,31.43,10.96,50.25,10.96v-.02Z"/>
          <path class="cls-1" d="M1367.72,957.65c-7.62,0-14.6,1.55-20.95,4.65-6.35,3.1-11.78,7.17-16.28,12.22s-7.96,10.85-10.39,17.4c-2.42,6.55-3.64,13.28-3.64,20.19v64.02h94.55v23.11h-94.55v248.89h-70.65v-248.89h-73.77v-23.11h73.77v-31.34c0-14.88,3.46-28.82,10.39-41.84s16.33-24.35,28.23-34c11.89-9.65,25.85-17.31,41.91-22.98,16.04-5.67,33.19-8.5,51.43-8.5,12.47,0,24.53,1.24,36.19,3.72,11.66,2.48,22.45,5.98,32.38,10.49,9.92,4.52,18.75,10.09,26.49,16.73,7.73,6.64,13.91,14.04,18.53,22.18l-51.26,28.42c-2.54-7.08-5.54-14.25-9-21.52-3.46-7.26-7.85-13.85-13.16-19.79-5.31-5.93-12.01-10.76-20.09-14.48s-18.13-5.58-30.13-5.58h0Z"/>
          <path class="cls-1" d="M1623.66,957.65c-7.62,0-14.6,1.55-20.95,4.65-6.35,3.1-11.78,7.17-16.28,12.22s-7.96,10.85-10.39,17.4c-2.42,6.55-3.64,13.28-3.64,20.19v64.02h94.55v23.11h-94.55v248.89h-70.65v-248.89h-73.77v-23.11h73.77v-31.34c0-14.88,3.46-28.82,10.39-41.84s16.33-24.35,28.23-34c11.89-9.65,25.85-17.31,41.91-22.98,16.04-5.67,33.19-8.5,51.43-8.5,12.47,0,24.53,1.24,36.19,3.72,11.66,2.48,22.45,5.98,32.38,10.49,9.92,4.52,18.75,10.09,26.49,16.73,7.73,6.64,13.91,14.04,18.53,22.18l-51.26,28.42c-2.54-7.08-5.54-14.25-9-21.52-3.46-7.26-7.85-13.85-13.16-19.79-5.31-5.93-12.01-10.76-20.09-14.48s-18.13-5.58-30.13-5.58h0Z"/>
          <path class="cls-1" d="M1853.99,1353.97c-24.02,0-46.58-3.45-67.71-10.36-21.12-6.91-39.54-16.29-55.24-28.16-15.7-11.86-28.11-25.81-37.23-41.84-9.12-16.02-13.68-33.07-13.68-51.13,0-21.78,4.16-41.92,12.47-60.43,8.31-18.5,20.09-34.49,35.32-47.95,15.24-13.46,33.53-23.99,54.89-31.61,21.35-7.61,45.2-11.42,71.52-11.42,23.08,0,44.33,3.15,63.72,9.43,19.39,6.29,36.07,14.7,50.04,25.23,13.97,10.54,24.82,22.71,32.55,36.52,7.73,13.81,11.6,28.25,11.6,43.3h-264.25c0,18.24,3.06,35.15,9.18,50.73s14.72,29.04,25.8,40.38c11.08,11.33,24.24,20.19,39.48,26.56s31.98,9.56,50.22,9.56c15.24,0,29.9-1.9,43.98-5.71,14.08-3.81,26.84-8.81,38.27-15.01s21.18-13.28,29.26-21.25,13.73-16.2,16.97-24.7l20.43,6.91c-5.08,13.99-13.28,27.09-24.59,39.31-11.32,12.22-24.54,22.89-39.65,32.01-15.12,9.12-31.58,16.34-49.35,21.65-17.78,5.31-35.79,7.97-54.03,7.97h.03ZM1923.95,1163.78c0-10.27-2.37-19.83-7.1-28.69-4.74-8.85-11.26-16.51-19.57-22.98-8.31-6.46-18.01-11.55-29.09-15.27s-22.98-5.58-35.67-5.58c-10.62,0-20.78,1.82-30.48,5.45s-18.35,8.68-25.97,15.14c-7.62,6.47-13.91,14.12-18.88,22.98s-7.91,18.42-8.83,28.69l175.59.27h0Z"/>
          <path class="cls-1" d="M2200.73,1353.97c-24.02,0-46.58-3.45-67.71-10.36-21.12-6.91-39.54-16.29-55.24-28.16-15.7-11.86-28.11-25.81-37.23-41.84-9.12-16.02-13.68-33.07-13.68-51.13,0-21.78,4.16-41.92,12.47-60.43,8.31-18.5,20.09-34.49,35.32-47.95,15.24-13.46,33.53-23.99,54.89-31.61,21.35-7.61,45.2-11.42,71.52-11.42,23.08,0,44.33,3.15,63.72,9.43,19.39,6.29,36.07,14.7,50.04,25.23,13.97,10.54,24.82,22.71,32.55,36.52s11.6,28.25,11.6,43.3h-264.25c0,18.24,3.06,35.15,9.18,50.73,6.12,15.58,14.72,29.04,25.8,40.38,11.08,11.33,24.24,20.19,39.48,26.56s31.98,9.56,50.22,9.56c15.24,0,29.9-1.9,43.98-5.71,14.08-3.81,26.84-8.81,38.27-15.01s21.18-13.28,29.26-21.25,13.73-16.2,16.97-24.7l20.43,6.91c-5.08,13.99-13.28,27.09-24.59,39.31-11.32,12.22-24.54,22.89-39.65,32.01-15.12,9.12-31.58,16.34-49.35,21.65-17.78,5.31-35.79,7.97-54.03,7.97h.03ZM2270.69,1163.78c0-10.27-2.37-19.83-7.1-28.69-4.74-8.85-11.26-16.51-19.57-22.98-8.31-6.46-18.01-11.55-29.09-15.27s-22.98-5.58-35.67-5.58c-10.62,0-20.78,1.82-30.48,5.45s-18.35,8.68-25.97,15.14c-7.62,6.47-13.91,14.12-18.88,22.98s-7.91,18.42-8.83,28.69l175.59.27h0Z"/>
        </g>
      </g>
    </g>
  </g>
</svg>