<?xml version="1.0" encoding="UTF-8"?>
<svg xmlns="http://www.w3.org/2000/svg" version="1.1" viewBox="0 0 2862.2 1848.4">
  <defs>
    <style>
      .cls-1 {
        fill: none;
      }

      .cls-2 {
        fill: #352929;
      }
    </style>
  </defs>
  <!-- Generator: Adobe Illustrator 28.6.0, SVG Export Plug-In . SVG Version: 1.2.0 Build 709)  -->
  <g>
    <g id="_レイヤー_2">
      <g id="_レイヤー_3">
        <g>
          <g>
            <g>
              <line class="cls-1" x1="-3929.8" y1="46.8" x2="-3682.5" y2="45.9"/>
              <path d="M-3929.8,53.6c-3.7,0-6.8-3-6.8-6.8,0-3.8,3-6.8,6.8-6.8l247.3-.9h0c3.8,0,6.8,3,6.8,6.8,0,3.8-3,6.8-6.8,6.8l-247.3.9h0,0Z"/>
            </g>
            <g>
              <line class="cls-1" x1="-3931.5" y1="94.4" x2="-3682.5" y2="93.5"/>
              <path d="M-3931.5,101.2c-3.8,0-6.8-3-6.8-6.8,0-3.8,3-6.8,6.8-6.8l249-.8h0c3.7,0,6.8,3,6.8,6.8,0,3.8-3,6.8-6.8,6.8l-249,.8h0,0Z"/>
            </g>
            <g>
              <line class="cls-1" x1="-3931.5" y1="141.9" x2="-3682.5" y2="141.1"/>
              <path d="M-3931.5,148.7c-3.8,0-6.8-3-6.8-6.8,0-3.8,3-6.8,6.8-6.8l249-.8h0c3.7,0,6.8,3,6.8,6.8,0,3.8-3,6.8-6.8,6.8l-249,.8h0,0Z"/>
            </g>
            <g>
              <line class="cls-1" x1="-3931.5" y1="186.1" x2="-3682.5" y2="185.3"/>
              <path d="M-3931.5,192.9c-3.8,0-6.8-3-6.8-6.8,0-3.8,3-6.8,6.8-6.8l249-.9h0c3.7,0,6.8,3,6.8,6.8,0,3.8-3,6.8-6.8,6.8l-249,.9h0,0Z"/>
            </g>
            <g>
              <line class="cls-1" x1="-3931.5" y1="228.6" x2="-3682.5" y2="227.8"/>
              <path d="M-3931.5,235.4c-3.8,0-6.8-3-6.8-6.8,0-3.8,3-6.8,6.8-6.8l249-.9h0c3.7,0,6.8,3,6.8,6.8,0,3.8-3,6.8-6.8,6.8l-249,.9h0,0Z"/>
            </g>
            <g>
              <line class="cls-1" x1="-3453" y1="47.6" x2="-3201.5" y2="45.9"/>
              <path d="M-3453,44.6c48.4-1.8,108.7-3.6,157.2-4.9,10.5-.3,21,.6,31.5,1.2,20.7,1.2,42.3,2.8,62.9,4.7.1,0,.2.1.2.3,0,.1-.1.2-.2.2-15.7,1.9-31.4,3.3-47.1,4.7l-15.7,1.2c-21,2.5-41.9,1-62.9.9-37-.7-89.3-1.5-125.8-2.3-3.8-.1-4-5.8,0-6.1h0Z"/>
            </g>
            <path d="M-3452.2,141.7c20.6-2,42.2-3.7,62.9-5.1,10.5-.7,21-1.7,31.5-1.4,21.1.3,72.6,1.6,94.3,2.1,18.4.4,44.3,1.2,62.9,1.7,1.7,0,3,1.4,2.9,3.1,0,1.6-1.3,2.9-2.9,2.9-21,.6-41.9,1.2-62.9,1.7l-62.9,1.5c-21,.3-41.9,1.9-62.9-.5l-15.7-1.1c-15.7-1.3-31.5-2.6-47.2-4.4-.1,0-.2-.1-.2-.3,0-.1.1-.2.2-.2h0Z"/>
            <path d="M-3450.5,91.3c48.4-1.5,108.7-2.8,157.2-3.8,10.5-.3,21,.8,31.5,1.4,20.7,1.4,42.3,3.1,62.9,5.1.1,0,.2.1.2.3,0,.1-.1.2-.2.2-15.7,1.8-31.4,3.1-47.2,4.4l-15.7,1.1c-21,2.4-41.9.8-62.9.5-37-.9-89.3-2.1-125.8-3.2-3.8-.2-4-5.8,0-6.1h0Z"/>
            <path d="M-3450.5,185.9c25.4-2.6,52-4.4,77.6-6.2,15.5-1,31,0,46.5.3,21.6.6,72.1,1.6,93.1,2.2l31,.9c1.7,0,3,1.4,2.9,3.1,0,1.6-1.3,2.9-2.9,2.9-20.7.6-41.4,1.2-62,1.7-20.7.5-73.1,1.8-93.1,2.3-14.4.6-32.1-1.5-46.5-2.4-15.5-1.3-31-2.6-46.5-4.4-.1,0-.2-.1-.2-.3,0-.1.1-.2.2-.2h0Z"/>
            <g>
              <line class="cls-1" x1="-3452.2" y1="228.6" x2="-3201.5" y2="227.8"/>
              <path d="M-3452.2,228.4c20.5-2.1,42-3.9,62.7-5.3,10.4-.7,20.9-1.8,31.3-1.6,21,.2,72.4,1.4,94,1.8,18.3.3,44.2,1,62.7,1.5,1.7,0,3,1.4,3,3.1,0,1.6-1.3,2.9-2.9,2.9-20.9.7-41.8,1.4-62.7,1.9l-62.7,1.7c-20.9.4-41.8,2.1-62.7-.2l-15.7-1.1c-15.7-1.2-31.4-2.5-47-4.2-.1,0-.2-.1-.2-.3,0-.1.1-.2.2-.2h0Z"/>
            </g>
            <path d="M-3453,491c21-2,43-3.7,64.2-5.1,10.7-.7,21.4-1.7,32.1-1.4,21.5.3,74.1,1.6,96.2,2.1,18.7.4,45.2,1.1,64.2,1.7,1.7,0,3,1.4,2.9,3.1,0,1.6-1.3,2.9-3,3-21.4.6-42.8,1.2-64.2,1.7l-64.2,1.5c-21.4.3-42.8,1.9-64.2-.5l-16-1.1c-16.1-1.3-32.1-2.6-48.1-4.4-.1,0-.2-.1-.2-.3,0-.1.1-.2.2-.2h0Z"/>
            <path d="M-3453,540.3c21-2,43-3.7,64.2-5.1,10.7-.7,21.4-1.7,32.1-1.4,21.5.3,74.1,1.6,96.2,2.1,18.7.4,45.2,1.1,64.2,1.7,1.7,0,3,1.4,2.9,3.1,0,1.6-1.3,2.9-3,3-21.4.6-42.8,1.2-64.2,1.7l-64.2,1.5c-21.4.3-42.8,1.9-64.2-.5l-16-1.1c-16.1-1.3-32.1-2.6-48.1-4.4-.1,0-.2-.1-.2-.3,0-.1.1-.2.2-.2h0Z"/>
            <path d="M-3453,586.8c49.4-1.5,110.9-2.8,160.4-3.8,10.7-.3,21.4.8,32.1,1.4,21.1,1.4,43.1,3.1,64.2,5.1.1,0,.2.1.2.3,0,.1-.1.2-.2.2-16,1.8-32.1,3.1-48.1,4.4l-16,1.1c-21.4,2.4-42.8.8-64.2.5-37.7-.9-91.1-2.1-128.3-3.2-3.8-.2-4-5.8,0-6.1h0Z"/>
            <path d="M-3453,636.1c49.4-1.5,110.9-2.8,160.4-3.8,10.7-.3,21.4.8,32.1,1.4,21.1,1.4,43.1,3.1,64.2,5.1.1,0,.2.1.2.3,0,.1-.1.2-.2.2-16,1.8-32.1,3.1-48.1,4.4l-16,1.1c-21.4,2.4-42.8.8-64.2.5-37.7-.9-91.1-2.1-128.3-3.2-3.8-.2-4-5.8,0-6.1h0Z"/>
            <path d="M-3454.7,680.3c49.7-1.5,111.6-2.8,161.5-3.8,10.8-.3,21.5.8,32.3,1.4,21.3,1.4,43.4,3.1,64.6,5.1.1,0,.2.1.2.3,0,.1-.1.2-.2.2-16.1,1.8-32.3,3.1-48.4,4.4l-16.2,1.1c-21.5,2.4-43.1.8-64.6.5-38-.9-91.7-2.1-129.2-3.2-3.8-.2-4-5.8,0-6.1h0Z"/>
            <g>
              <line class="cls-1" x1="-3945.9" y1="311.1" x2="-3201.5" y2="311.1"/>
              <path d="M-3945.9,310.8c92.6-2.6,186.5-6,279.2-6.6,142.4.9,323.1,2.4,465.3,3.8,1.7,0,3,1.4,3,3.1,0,1.6-1.4,3-3,3-69.8.6-403.4,3.4-465.3,4-43,.6-96.4-1.5-139.6-2.4-46.5-1.2-93.1-2.7-139.6-4.4-.1,0-.3-.1-.2-.3,0-.1.1-.2.2-.2h0Z"/>
            </g>
            <g>
              <line class="cls-1" x1="-3945.1" y1="271.1" x2="-3200.6" y2="271.1"/>
              <path d="M-3945.1,270.9c92.6-2.6,186.5-6,279.2-6.6,142.4.9,323.1,2.4,465.3,3.8,1.7,0,3,1.4,3,3.1,0,1.6-1.4,3-3,3-69.8.6-403.4,3.4-465.3,4-43,.6-96.4-1.5-139.6-2.4-46.5-1.2-93.1-2.7-139.6-4.4-.1,0-.3-.1-.2-.3,0-.1.1-.2.2-.2h0Z"/>
            </g>
            <g>
              <line class="cls-1" x1="-3939.1" y1="353.6" x2="-3201.4" y2="355.3"/>
              <path d="M-3939.1,353.3c91.8-2.4,184.8-5.6,276.6-5.9,141.1,1.2,320.1,3.1,461,4.8,1.7,0,3,1.4,3,3.1,0,1.6-1.4,3-3,3-69.1.4-399.7,2.5-461.1,2.9-42.6.5-95.5-1.7-138.3-2.7-46.1-1.3-92.2-2.9-138.3-4.7-.1,0-.3-.1-.2-.3,0-.1.1-.2.2-.2h0Z"/>
            </g>
            <g>
              <line class="cls-1" x1="-3939.1" y1="397.8" x2="-3201.5" y2="397.8"/>
              <path d="M-3939.1,397.5c91.8-2.6,184.8-6,276.6-6.6,141.1.9,320.1,2.3,461,3.8,1.7,0,3,1.4,3,3.1,0,1.6-1.4,3-3,3-69.1.6-399.7,3.4-461,4-42.6.6-95.5-1.5-138.3-2.4-46.1-1.2-92.2-2.7-138.3-4.4-.1,0-.3-.1-.2-.3,0-.1.1-.2.2-.2h0Z"/>
            </g>
            <g>
              <line class="cls-1" x1="-3939.1" y1="440.3" x2="-3201.5" y2="441.9"/>
              <path d="M-3939.1,440c91.8-2.4,184.8-5.5,276.6-5.9,141.1,1.2,320.1,3.1,461,4.9,1.7,0,3,1.4,3,3.1,0,1.6-1.4,3-3,3-69.1.4-399.7,2.5-461.1,2.9-42.6.5-95.5-1.7-138.3-2.7-46.1-1.3-92.2-2.9-138.3-4.7-.1,0-.3-.1-.2-.3,0-.1.1-.2.2-.2h0Z"/>
            </g>
            <g>
              <line class="cls-1" x1="-3931.5" y1="492.1" x2="-3682.5" y2="491.3"/>
              <path d="M-3931.5,498.9c-3.7,0-6.8-3-6.8-6.8s3-6.8,6.8-6.8l249-.8h0c3.7,0,6.8,3,6.8,6.8,0,3.8-3,6.8-6.8,6.8l-249,.8h0,0Z"/>
            </g>
            <g>
              <line class="cls-1" x1="-3931.5" y1="539.7" x2="-3682.5" y2="540.5"/>
              <path d="M-3931.5,539.4c25.5-2.5,52.2-4.3,77.8-5.9,15.6-.9,31.1.2,46.7.4,21.6.6,72.4,1.8,93.4,2.5l31.1,1c1.7,0,3,1.5,2.9,3.1,0,1.6-1.4,2.9-3,2.9-20.8.5-41.5,1.1-62.3,1.5-20.8.4-73.4,1.5-93.4,2-14.4.6-32.2-1.6-46.7-2.5-15.6-1.3-31.1-2.7-46.7-4.5-.1,0-.2-.1-.2-.3,0-.1.1-.2.2-.2h0Z"/>
            </g>
            <g>
              <line class="cls-1" x1="-3931.5" y1="691" x2="-3682.5" y2="691.8"/>
              <path d="M-3682.5,698.6h0l-249-.8c-3.8,0-6.8-3.1-6.8-6.8,0-3.8,3-6.8,6.8-6.8h0l249,.8c3.8,0,6.8,3.1,6.8,6.8s-3,6.8-6.8,6.8h0Z"/>
            </g>
            <g>
              <line class="cls-1" x1="-3939.1" y1="644.2" x2="-3677.4" y2="644.2"/>
              <path d="M-3939.1,644c21.5-2,43.9-3.7,65.4-5.1,10.9-.7,21.8-1.7,32.7-1.5,21.9.3,75.5,1.6,98.2,2.1,19.1.4,46.1,1.2,65.4,1.7,1.7,0,3,1.4,3,3.1,0,1.6-1.4,2.9-3,3-21.8.6-43.6,1.2-65.4,1.7l-65.4,1.5c-21.8.3-43.6,1.9-65.4-.5l-16.4-1.1c-16.4-1.3-32.7-2.6-49.1-4.4-.1,0-.2-.1-.2-.3,0-.1.1-.2.2-.2h0Z"/>
            </g>
            <g>
              <line class="cls-1" x1="-3937.4" y1="591.5" x2="-3677.4" y2="591.5"/>
              <path d="M-3937.4,591.3c21.3-2,43.6-3.7,65-5.1,10.8-.7,21.7-1.7,32.5-1.5,21.8.3,75,1.6,97.5,2.1,19,.4,45.8,1.2,65,1.7,1.7,0,3,1.4,3,3.1,0,1.6-1.4,2.9-3,3-21.7.6-43.3,1.2-65,1.7l-65,1.5c-21.7.3-43.3,1.9-65-.5l-16.2-1.1c-16.3-1.3-32.5-2.6-48.8-4.4-.1,0-.2-.1-.2-.3,0-.1.1-.2.2-.2h0Z"/>
            </g>
            <path d="M-2600.6,62.1h-343.3c-3.8,0-6.8-3-6.8-6.8s3-6.8,6.8-6.8h343.3c3.8,0,6.8,3,6.8,6.8s-3,6.8-6.8,6.8Z"/>
            <path d="M-2587,106.3h-372.2c-3.8,0-6.8-3-6.8-6.8s3-6.8,6.8-6.8h372.2c3.8,0,6.8,3,6.8,6.8s-3,6.8-6.8,6.8Z"/>
            <path d="M-2974.5,142.3c77.9-1.5,174.8-2.8,252.8-3.8,16.9-.3,33.7.8,50.6,1.4,33.3,1.4,67.9,3.1,101.1,5.1.1,0,.2.1.2.3,0,.1-.1.2-.2.2-41.4,2.8-84.8,4.9-126.4,6.6-16.9.7-58.4-.6-75.8-.7l-202.3-3.2c-1.7,0-3-1.4-3-3.1,0-1.6,1.3-3,3-3h0Z"/>
            <g>
              <line class="cls-1" x1="-2995.8" y1="192.1" x2="-2550.4" y2="192.1"/>
              <path d="M-2995.8,189.1c85.7-1.5,192.4-2.9,278.3-3.8,55.4.5,111.6,3.9,167,6.6.1,0,.2.1.2.3s-.1.2-.2.2c-45.6,2.8-93.4,4.9-139.2,6.6-18.6.7-64.2-.6-83.5-.7l-222.7-3.2c-1.7,0-3-1.4-3-3.1,0-1.6,1.3-3,3-3h0Z"/>
            </g>
            <g>
              <line class="cls-1" x1="-3012.8" y1="232.9" x2="-2536.9" y2="234.6"/>
              <path d="M-3012.8,232.6c59.2-2.4,119.3-5.7,178.5-5.9,39.9.4,137.3,2.1,178.5,2.7,34.8.5,83.8,1.4,119,2.1,1.7,0,3,1.4,3,3.1,0,1.6-1.4,2.9-3,3-44.6.4-257.9,2.5-297.5,2.9-27.5.5-61.6-1.7-89.2-2.7-29.8-1.3-59.5-2.9-89.2-4.7-.1,0-.2-.1-.2-.3s.1-.2.2-.2h0Z"/>
            </g>
            <g>
              <line class="cls-1" x1="-3026.4" y1="282.2" x2="-2519.8" y2="282.2"/>
              <path d="M-3026.4,281.9c62.7-2.6,127.2-6.1,190-6.6,97.8.9,219,2.3,316.6,3.8,1.7,0,3,1.4,3,3.1,0,1.6-1.4,3-3,3-47.4.6-274.4,3.4-316.6,4-29.3.6-65.6-1.5-95-2.4-31.7-1.2-63.3-2.7-95-4.4-.1,0-.2-.1-.2-.3s.1-.2.2-.2h0Z"/>
            </g>
            <path d="M-2845.4,332.3h-190.4c-3.8,0-6.8-3-6.8-6.8s3-6.8,6.8-6.8h190.4c3.8,0,6.8,3,6.8,6.8s-3,6.8-6.8,6.8Z"/>
            <g>
              <line class="cls-1" x1="-2718.7" y1="326.4" x2="-2502.8" y2="328.1"/>
              <path d="M-2718.7,323.3c30.6-1,76.9-1.7,108-2.3,13.5-.1,27-1,40.5,0,12.5,1.1,28,2.4,40.4,3.7,9,.9,18,1.9,27,3,.1,0,.2.1.2.3,0,.1-.1.2-.2.2-9,1.1-18,2-27,2.8-12.4,1.2-28,2.3-40.5,3.3-9,.6-31.1-.8-40.5-1l-54-1.9c-18-.6-36-1.4-53.9-2.1-3.8-.2-3.9-5.8,0-6.1h0Z"/>
            </g>
            <g>
              <line class="cls-1" x1="-2708.5" y1="372.3" x2="-2489.3" y2="372.3"/>
              <path d="M-2708.5,369.2c31.1-1.2,78.1-2.3,109.6-3.1,13.7-.2,27.4-1.2,41.1-.3,12.7,1,28.5,2.2,41.1,3.4,9.1.8,18.3,1.7,27.4,2.8.1,0,.2.1.2.3,0,.1-.1.2-.2.2-9.1,1.2-18.3,2.2-27.4,3-12.6,1.3-28.4,2.5-41.1,3.6-4.6.3-9.1.3-13.7.1-17.4-.5-64.2-1.8-82.2-2.3-18.3-.5-36.5-1.1-54.8-1.7-3.8-.2-4-5.8,0-6.1h0Z"/>
            </g>
            <path d="M-2869.2,424.1h-197.2c-3.8,0-6.8-3-6.8-6.8s3-6.8,6.8-6.8h197.2c3.8,0,6.8,3,6.8,6.8s-3,6.8-6.8,6.8Z"/>
            <path d="M-2857.3,378.2h-193.8c-3.8,0-6.8-3-6.8-6.8s3-6.8,6.8-6.8h193.8c3.8,0,6.8,3,6.8,6.8s-3,6.8-6.8,6.8Z"/>
            <path d="M-2879.4,468.3h-202.3c-3.8,0-6.8-3-6.8-6.8s3-6.8,6.8-6.8h202.3c3.8,0,6.8,3,6.8,6.8s-3,6.8-6.8,6.8Z"/>
            <path d="M-2698.3,415.1c31.8-1.2,79.9-2.3,112.2-3.1,14-.2,28.1-1.2,42.1-.3,13,1,29.1,2.2,42.1,3.4,9.3.8,18.7,1.7,28.1,2.8.1,0,.2.1.2.3,0,.1-.1.2-.2.2-9.3,1.2-18.7,2.2-28.1,3-8,.9-19.9,1.8-28.1,2.5l-14,1.1c-9.4.7-32.4-.5-42.1-.7-32.9-.9-79.7-2.1-112.2-3.2-3.8-.2-4-5.8,0-6.1h0Z"/>
            <g>
              <line class="cls-1" x1="-2682.2" y1="461.5" x2="-2453.6" y2="462.4"/>
              <path d="M-2682.2,458.5c32.4-1.1,81.4-2,114.3-2.7,14.3-.1,28.6-1.1,42.9-.1,13.3,1.1,29.7,2.3,42.8,3.6,9.5.9,19.1,1.8,28.6,2.9.1,0,.2.1.2.3,0,.1-.1.2-.2.2-9.5,1.1-19.1,2.1-28.6,3-8.2.8-20.2,1.7-28.6,2.4l-14.3,1.1c-9.6.7-33-.7-42.9-.8-33.6-1-81.2-2.4-114.3-3.6-3.8-.2-4-5.8,0-6.1h0Z"/>
            </g>
            <path d="M-2449.3,514.2h-647.6c-3.8,0-6.8-3-6.8-6.8s3-6.8,6.8-6.8h647.6c3.8,0,6.8,3,6.8,6.8s-3,6.8-6.8,6.8Z"/>
            <path d="M-2432.3,558.4h-679.9c-3.8,0-6.8-3-6.8-6.8s3-6.8,6.8-6.8h679.9c3.8,0,6.8,3,6.8,6.8s-3,6.8-6.8,6.8Z"/>
            <g>
              <line class="cls-1" x1="-3131.8" y1="596.6" x2="-2413.6" y2="597.5"/>
              <path d="M-3131.8,593.6c137.1-1.3,311.5-2.5,448.8-3.3,89.4,1,180.5,3.7,269.6,7.2,0,.1-.1.2-.2.2-73.6,2.8-150.7,4.7-224.4,6.4-30,.7-103.6-.7-134.7-.8l-359.1-3.6c-1.7,0-3-1.4-3-3.1,0-1.7,1.4-3,3-3h0Z"/>
            </g>
            <g>
              <line class="cls-1" x1="-3147.1" y1="642.5" x2="-2395.8" y2="644.2"/>
              <path d="M-3147.1,639.5c143.5-1.1,325.9-2.1,469.6-2.7,93.5,1.1,188.8,3.9,282,7.5,0,.1-.1.2-.2.2-76.9,2.7-157.6,4.5-234.8,6.1-31.4.6-108.4-.8-140.9-1l-375.6-4c-1.7,0-3-1.4-3-3.1,0-1.7,1.4-3,3-3h0Z"/>
            </g>
            <g>
              <line class="cls-1" x1="-3161.5" y1="682.5" x2="-2927.8" y2="681.6"/>
              <path d="M-3161.5,682.2c23.9-2.7,49-4.6,73-6.5,14.6-1,29.2,0,43.8.1,20.3.5,67.9,1.3,87.7,1.9l29.2.8c1.7,0,3,1.4,3,3.1,0,1.6-1.3,2.9-2.9,3-19.5.7-39,1.4-58.4,1.9-19.5.6-68.8,2-87.6,2.6-13.5.7-30.3-1.4-43.8-2.2-14.6-1.2-29.2-2.5-43.8-4.2-.1,0-.2-.1-.2-.3,0-.1.1-.2.2-.2h0Z"/>
            </g>
            <g>
              <line class="cls-1" x1="-2627.8" y1="684.2" x2="-2381.3" y2="685.9"/>
              <path d="M-2381.3,692.7h0l-246.5-1.7c-3.8,0-6.8-3.1-6.8-6.8,0-3.7,3.1-6.8,6.8-6.8h0l246.5,1.7c3.8,0,6.8,3.1,6.8,6.8,0,3.7-3.1,6.8-6.8,6.8Z"/>
            </g>
            <g>
              <line class="cls-1" x1="-2335.4" y1="142" x2="-1737.1" y2="140.3"/>
              <path d="M-2335.4,141.7c74.4-2.8,149.9-6.4,224.3-7.2,114.4.6,259.7,1.6,374,2.7,1.7,0,3,1.4,3,3.1,0,1.7-1.4,3-3,3-56,.8-324.2,4.4-373.9,5-34.6.7-77.4-1.3-112.2-2.1-37.4-1.1-74.8-2.5-112.2-4.1-.1,0-.2-.1-.2-.3s.1-.2.2-.2h0Z"/>
            </g>
            <g>
              <line class="cls-1" x1="-2335.4" y1="94.4" x2="-1737.1" y2="96"/>
              <path d="M-1737.1,102.8h0l-598.3-1.7c-3.8,0-6.8-3.1-6.8-6.8,0-3.8,3.1-6.8,6.8-6.8h0l598.3,1.7c3.8,0,6.8,3.1,6.8,6.8,0,3.8-3.1,6.8-6.8,6.8Z"/>
            </g>
            <g>
              <line class="cls-1" x1="-2335.4" y1="50.2" x2="-1737.1" y2="51.9"/>
              <path d="M-1737.1,58.7h0l-598.3-1.7c-3.8,0-6.8-3.1-6.8-6.8,0-3.8,3.1-6.8,6.8-6.8h0l598.3,1.7c3.8,0,6.8,3.1,6.8,6.8,0,3.8-3.1,6.8-6.8,6.8Z"/>
            </g>
            <path d="M-2339.7,186.7c76.1-2.6,153.3-6,229.5-6.6,117,.9,265.6,2.4,382.4,3.8,1.7,0,3,1.4,3,3.1,0,1.6-1.4,3-3,3-57.3.6-331.6,3.4-382.4,4-35.4.6-79.2-1.5-114.7-2.4-38.2-1.2-76.5-2.7-114.7-4.4-.1,0-.2-.1-.2-.3s.1-.2.2-.2h0Z"/>
            <path d="M-2339.7,224.8c116.8-1.4,265.4-2.9,382.4-3.8,12.8-.1,25.5,0,38.2.4,63.3,2.3,128.5,3.1,191.5,6.5,0,.1-.1.2-.2.2-62.7,2.8-128.4,4.9-191.2,6.6-25.5.7-88.3-.6-114.7-.7l-305.9-3.2c-1.7,0-3-1.4-3-3.1,0-1.6,1.3-3,3-3h0Z"/>
            <path d="M-2094.9,274c60.9-1.5,136.6-2.9,197.6-3.8,13.2-.3,26.4.8,39.5,1.4,26,1.4,53.1,3.1,79,5.1.1,0,.2.1.2.3,0,.1-.1.2-.2.2-19.8,1.8-39.5,3.1-59.3,4.4l-19.8,1.1c-45.7,3.2-111.7-1-158.1-1.1-26.3-.5-52.7-1.1-79-1.7-3.7-.1-4.1-5.8,0-6.1h0Z"/>
            <path d="M-2142.5,318.2c61.2-1.5,137.3-2.9,198.7-3.8,13.2-.3,26.5.8,39.7,1.4,26.2,1.4,53.4,3.1,79.5,5.1.1,0,.2.1.2.3,0,.1-.1.2-.2.2-19.9,1.8-39.7,3.1-59.6,4.4l-19.9,1.1c-45.9,3.2-112.3-1-158.9-1-26.5-.5-53-1.1-79.5-1.7-3.7-.1-4.1-5.8,0-6.1h0Z"/>
            <path d="M-2193.5,366.9c25.9-2,53-3.7,79-5.1,13.2-.7,26.3-1.7,39.5-1.4,26.5.3,91.2,1.6,118.6,2.1,23.1.4,55.7,1.1,79,1.7,1.7,0,3,1.4,3,3.1,0,1.6-1.4,2.9-3,3-26.3.6-52.7,1.2-79,1.7-46.7,0-112.1,4.2-158.1,1.1l-19.8-1.1c-19.8-1.3-39.5-2.6-59.3-4.4-.1,0-.2-.1-.2-.3,0-.1.1-.2.2-.2h0Z"/>
            <g>
              <line class="cls-1" x1="-2241.9" y1="412.2" x2="-1924.9" y2="411.4"/>
              <path d="M-2241.9,419c-3.8,0-6.8-3-6.8-6.8,0-3.8,3-6.8,6.8-6.8l317-.9h0c3.8,0,6.8,3,6.8,6.8,0,3.8-3,6.8-6.8,6.8l-317,.9h0Z"/>
            </g>
            <path d="M-1972.5,464.1h-316.2c-3.8,0-6.8-3-6.8-6.8s3-6.8,6.8-6.8h316.2c3.8,0,6.8,3,6.8,6.8s-3,6.8-6.8,6.8Z"/>
            <g>
              <line class="cls-1" x1="-2335.4" y1="502.3" x2="-1735.4" y2="504"/>
              <path d="M-2335.4,502c74.6-2.4,150.3-5.5,225-5.9,114.8,1.2,260.4,3.1,375,4.9,1.7,0,3,1.4,3,3.1,0,1.6-1.4,3-3,3-56.1.4-325.1,2.5-375,2.9-34.7.5-77.6-1.7-112.5-2.7-37.5-1.3-75-2.9-112.5-4.7-.1,0-.2-.1-.2-.3s.1-.2.2-.2h0Z"/>
            </g>
            <g>
              <line class="cls-1" x1="-2333.7" y1="548.2" x2="-1735.4" y2="549.9"/>
              <path d="M-2333.7,547.9c74.4-2.4,149.9-5.5,224.4-5.9,114.4,1.2,259.6,3.1,373.9,4.9,1.7,0,3,1.4,3,3.1,0,1.6-1.4,3-3,3-56,.4-324.2,2.5-374,2.9-34.6.5-77.4-1.7-112.2-2.7-37.4-1.3-74.8-2.9-112.2-4.7-.1,0-.2-.1-.2-.3s.1-.2.2-.2h0Z"/>
            </g>
            <path d="M-2339.7,591.9c115.9-1.5,263.2-2.9,379.3-3.8,12.6-.1,25.3,0,37.9.4,62.8,2.3,127.5,3.1,189.9,6.5,0,.1-.1.2-.2.2-62.1,2.8-127.3,4.9-189.6,6.6-25.3.7-87.6-.6-113.8-.7l-303.4-3.2c-1.7,0-3-1.4-3-3.1,0-1.7,1.4-3,3-3h0Z"/>
            <path d="M-1732.9,645.9h-606.8c-3.8,0-6.8-3-6.8-6.8s3-6.8,6.8-6.8h606.8c3.8,0,6.8,3,6.8,6.8s-3,6.8-6.8,6.8Z"/>
            <path d="M-1731.2,691.8h-606.8c-3.8,0-6.8-3-6.8-6.8s3-6.8,6.8-6.8h606.8c3.8,0,6.8,3,6.8,6.8s-3,6.8-6.8,6.8Z"/>
            <path d="M-1092.1,57.8h-566c-3.8,0-6.8-3-6.8-6.8s3-6.8,6.8-6.8h566c3.8,0,6.8,3,6.8,6.8s-3,6.8-6.8,6.8Z"/>
            <path d="M-1658.1,92.2c109-1.5,244.6-2.8,353.8-3.8,11.8-.1,23.6,0,35.4.4,58.6,2.3,118.9,3.1,177.1,6.5,0,.1-.1.2-.2.2-58,2.8-118.7,4.9-176.9,6.6-23.6.7-81.7-.6-106.1-.7l-283-3.2c-1.7,0-3-1.4-3-3.1,0-1.7,1.4-3,3-3h0Z"/>
            <path d="M-1662.3,140.6c108.9-1.4,247.4-2.9,356.4-3.8,11.9-.1,23.8,0,35.6.4,59,2.3,119.8,3.1,178.5,6.5,0,.1-.1.2-.2.2-58.4,2.8-119.6,4.9-178.2,6.6-23.8.7-82.3-.6-106.9-.7l-285.1-3.2c-1.7,0-3-1.4-3-3.1,0-1.7,1.4-3,3-3h0Z"/>
            <path d="M-1662.3,189.3c71.6-2.6,144.1-6,215.8-6.6,110,.9,249.7,2.4,359.6,3.8,1.7,0,3,1.4,3,3.1,0,1.6-1.4,3-3,3-53.8.6-311.8,3.4-359.6,4-33.3.6-74.4-1.5-107.9-2.4-36-1.2-71.9-2.7-107.9-4.4-.1,0-.2-.1-.2-.3s.1-.2.2-.2h0Z"/>
            <path d="M-1662.3,546.9c108.9-1.5,247.4-2.9,356.4-3.8,11.9-.1,23.8,0,35.6.4,59,2.3,119.8,3.1,178.5,6.5,0,.1-.1.2-.2.2-58.4,2.8-119.6,4.9-178.2,6.6-23.8.7-82.3-.6-106.9-.7l-285.1-3.2c-1.7,0-3-1.4-3-3.1,0-1.6,1.4-3,3-3h0Z"/>
            <path d="M-1092.1,599.2h-570.3c-3.8,0-6.8-3-6.8-6.8s3-6.8,6.8-6.8h570.3c3.8,0,6.8,3,6.8,6.8s-3,6.8-6.8,6.8Z"/>
            <g>
              <line class="cls-1" x1="-1662.3" y1="640" x2="-1085.3" y2="639.1"/>
              <path d="M-1662.3,636.9c110.2-1.6,250.3-3.2,360.7-4.3,12-.1,24,0,36.1.3,59.7,2.2,121.3,3,180.6,6.2,0,.1-.1.2-.2.2-59.1,2.9-121.1,5-180.3,6.9-24.1.7-83.3-.4-108.2-.5l-288.5-2.8c-1.7,0-3-1.4-3-3.1,0-1.7,1.4-3,3-3h0Z"/>
            </g>
            <path d="M-1092.1,690.1h-566c-3.8,0-6.8-3-6.8-6.8s3-6.8,6.8-6.8h566c3.8,0,6.8,3,6.8,6.8s-3,6.8-6.8,6.8Z"/>
            <path d="M-1663.2,276.8c22.7-2,46.4-3.7,69.3-5.1,11.5-.7,23.1-1.7,34.6-1.4,23.2.3,80,1.6,103.9,2.1,20.2.4,48.8,1.1,69.3,1.7,1.7,0,3,1.4,2.9,3.1,0,1.6-1.4,2.9-2.9,2.9-23.1.6-46.2,1.2-69.3,1.7l-69.3,1.5c-23.1.3-46.2,1.9-69.3-.5l-17.3-1.1c-17.3-1.3-34.6-2.6-51.9-4.4-.1,0-.2-.1-.2-.3,0-.1.1-.2.2-.2h0Z"/>
            <path d="M-1386.1,238h-277.1c-3.8,0-6.8-3-6.8-6.8s3-6.8,6.8-6.8h277.1c3.8,0,6.8,3,6.8,6.8s-3,6.8-6.8,6.8Z"/>
            <path d="M-1404,464.9h-255c-3.8,0-6.8-3-6.8-6.8s3-6.8,6.8-6.8h255c3.8,0,6.8,3,6.8,6.8s-3,6.8-6.8,6.8Z"/>
            <path d="M-1404,507.4h-255c-3.8,0-6.8-3-6.8-6.8s3-6.8,6.8-6.8h255c3.8,0,6.8,3,6.8,6.8s-3,6.8-6.8,6.8Z"/>
            <g>
              <line class="cls-1" x1="-1662.3" y1="322.1" x2="-1245" y2="321.3"/>
              <path d="M-1662.3,321.9c34.2-2.1,70-3.9,104.3-5.3,17.4-.7,34.8-1.8,52.2-1.5,34.9.2,120.4,1.4,156.5,1.8,30.5.3,73.5,1,104.3,1.5,1.7,0,3,1.4,3,3.1,0,1.6-1.4,3-3,3-39.1.7-226.1,3.9-260.8,4.5-24.1.7-54-1.4-78.2-2.2-26.1-1.2-52.2-2.6-78.2-4.2-.1,0-.2-.1-.2-.3s.1-.2.2-.2h0Z"/>
            </g>
            <g>
              <line class="cls-1" x1="-1662.3" y1="368" x2="-1124.4" y2="368.9"/>
              <path d="M-1662.3,365c103.6-1.3,232.4-2.5,336.2-3.3,66.6.6,135.2,4.1,201.7,6.9.1,0,.2.1.2.3s-.1.2-.2.2c-55.1,2.8-112.9,4.7-168.1,6.4-22.5.7-77.6-.7-100.9-.8l-269-3.6c-1.7,0-3-1.4-3-3.1,0-1.6,1.4-3,3-3h0Z"/>
            </g>
            <g>
              <line class="cls-1" x1="-1662.3" y1="412.2" x2="-1238.2" y2="411.4"/>
              <path d="M-1662.3,412c34.8-2.1,71.1-3.9,106-5.3,17.7-.7,35.3-1.8,53-1.5,35.5.2,122.4,1.4,159,1.8,31,.3,74.7,1,106,1.5,1.7,0,3,1.4,3,3.1,0,1.6-1.4,3-3,3-39.7.7-229.8,3.9-265.1,4.5-24.5.7-54.9-1.4-79.5-2.2-26.5-1.2-53-2.6-79.5-4.2-.1,0-.2-.1-.2-.3s.1-.2.2-.2h0Z"/>
            </g>
          </g>
          <g>
            <path d="M-3210.2,1191.7c-2.5-7.1-6-14.2-10.4-21.5-4.4-7.3-10-13.8-16.8-19.8-6.8-5.9-14.8-10.8-24.1-14.5-9.2-3.7-20.1-5.6-32.5-5.6s-30.2,2.5-42.9,7.4c-12.7,5-23.4,11.7-32.2,20.2-8.8,8.5-15.5,18.4-20.1,29.8-4.6,11.3-6.9,23.4-6.9,36.1s2.9,33.8,8.8,49.3c5.9,15.5,14.2,29.1,24.9,40.8,10.7,11.7,23.7,20.9,38.8,27.8,15.1,6.8,32,10.2,50.7,10.2s30.7-2,42.8-6,22.6-9.3,31.5-16.1c8.9-6.7,16.6-14.6,23-23.5,6.5-8.9,12.2-18.4,17.3-28.3l21.1,6.6c-6,17-14.1,32.2-24.2,45.7s-22.1,24.8-35.8,34.1c-13.7,9.3-29.2,16.4-46.4,21.2-17.2,4.9-35.8,7.3-55.9,7.3s-45.1-3.5-65.5-10.5-38-16.6-53-28.8-26.9-26.5-35.7-42.8c-8.8-16.3-13.2-33.7-13.2-52.3s2.2-26.8,6.6-39.4c4.4-12.7,10.6-24.5,18.5-35.5,8-11,17.5-21,28.7-30,11.2-9,23.6-16.8,37.2-23.2,13.6-6.5,28.2-11.5,43.8-15,15.6-3.5,31.8-5.3,48.7-5.3s27.6,1.2,40.5,3.7,24.8,6,35.7,10.5c10.8,4.5,20.4,10.1,28.8,16.7,8.3,6.6,14.8,14,19.4,22.2l-51.3,28.4h0Z"/>
            <path d="M-2937,1387.7c-26.4,0-50.8-3.5-72.9-10.6-22.2-7.1-41.3-16.6-57.5-28.8s-28.7-26.3-37.8-42.5-13.6-33.6-13.6-52.2,4.5-37.7,13.6-54.8c9.1-17.1,21.7-32,37.8-44.7,16.1-12.7,35.3-22.7,57.5-30,22.2-7.3,46.5-11,72.9-11s50.4,3.3,72.4,10.1c22.1,6.7,41.2,15.9,57.3,27.6s28.7,25.4,37.8,41.1,13.6,32.6,13.6,50.7-4.5,38.7-13.6,56.3c-9.1,17.6-21.7,33-37.8,46.2s-35.2,23.6-57.3,31.2c-22.1,7.7-46.2,11.5-72.4,11.5h0ZM-2923.8,1368.4c13.4,0,25.8-2.7,37-8,11.2-5.3,20.8-12.5,28.9-21.5s14.3-19.5,18.8-31.3,6.7-24.4,6.7-37.6c0-19.1-2.1-36.9-6.4-53.6s-11.2-31.2-20.8-43.6c-9.6-12.4-22.2-22.1-37.7-29.3-15.5-7.1-34.3-10.7-56.5-10.7s-22.5,2.5-33.3,7.6-20.2,12-28.4,20.8c-8.2,8.8-14.7,19-19.7,30.8-4.9,11.8-7.4,24.3-7.4,37.5,0,19.2,2.6,37.3,7.9,54.1,5.3,16.8,13,31.5,23.2,44.1,10.2,12.6,22.6,22.5,37.3,29.8,14.7,7.3,31.4,11,50.2,11h0Z"/>
            <path d="M-2578.5,996.8c-7.6,0-14.6,1.5-20.9,4.7-6.3,3.1-11.8,7.2-16.3,12.2s-8,10.8-10.4,17.4c-2.4,6.5-3.6,13.3-3.6,20.2v64h94.6v23.1h-94.6v248.9h-70.7v-248.9h-73.8v-23.1h73.8v-31.3c0-14.9,3.5-28.8,10.4-41.8s16.3-24.3,28.2-34c11.9-9.7,25.8-17.3,41.9-23,16-5.7,33.2-8.5,51.4-8.5s24.5,1.2,36.2,3.7c11.7,2.5,22.4,6,32.4,10.5,9.9,4.5,18.8,10.1,26.5,16.7,7.7,6.6,13.9,14,18.5,22.2l-51.3,28.4c-2.5-7.1-5.5-14.2-9-21.5-3.5-7.3-7.8-13.8-13.2-19.8-5.3-5.9-12-10.8-20.1-14.5s-18.1-5.6-30.1-5.6h0Z"/>
            <path d="M-2322.5,996.8c-7.6,0-14.6,1.5-20.9,4.7-6.3,3.1-11.8,7.2-16.3,12.2s-8,10.8-10.4,17.4c-2.4,6.5-3.6,13.3-3.6,20.2v64h94.6v23.1h-94.6v248.9h-70.7v-248.9h-73.8v-23.1h73.8v-31.3c0-14.9,3.5-28.8,10.4-41.8s16.3-24.3,28.2-34c11.9-9.7,25.8-17.3,41.9-23,16-5.7,33.2-8.5,51.4-8.5s24.5,1.2,36.2,3.7c11.7,2.5,22.4,6,32.4,10.5,9.9,4.5,18.8,10.1,26.5,16.7,7.7,6.6,13.9,14,18.5,22.2l-51.3,28.4c-2.5-7.1-5.5-14.2-9-21.5-3.5-7.3-7.8-13.8-13.2-19.8-5.3-5.9-12-10.8-20.1-14.5s-18.1-5.6-30.1-5.6h0Z"/>
            <path d="M-2092.2,1393.1c-24,0-46.6-3.4-67.7-10.4-21.1-6.9-39.5-16.3-55.2-28.2-15.7-11.9-28.1-25.8-37.2-41.8-9.1-16-13.7-33.1-13.7-51.1s4.2-41.9,12.5-60.4c8.3-18.5,20.1-34.5,35.3-47.9,15.2-13.5,33.5-24,54.9-31.6,21.3-7.6,45.2-11.4,71.5-11.4s44.3,3.2,63.7,9.4c19.4,6.3,36.1,14.7,50,25.2,14,10.5,24.8,22.7,32.6,36.5,7.7,13.8,11.6,28.2,11.6,43.3h-264.2c0,18.2,3.1,35.2,9.2,50.7s14.7,29,25.8,40.4c11.1,11.3,24.2,20.2,39.5,26.6s32,9.6,50.2,9.6,29.9-1.9,44-5.7c14.1-3.8,26.8-8.8,38.3-15s21.2-13.3,29.3-21.2,13.7-16.2,17-24.7l20.4,6.9c-5.1,14-13.3,27.1-24.6,39.3-11.3,12.2-24.5,22.9-39.7,32-15.1,9.1-31.6,16.3-49.3,21.7-17.8,5.3-35.8,8-54,8h0ZM-2022.2,1202.9c0-10.3-2.4-19.8-7.1-28.7-4.7-8.8-11.3-16.5-19.6-23-8.3-6.5-18-11.6-29.1-15.3s-23-5.6-35.7-5.6-20.8,1.8-30.5,5.4-18.3,8.7-26,15.1c-7.6,6.5-13.9,14.1-18.9,23s-7.9,18.4-8.8,28.7l175.6.3h0Z"/>
            <path d="M-1745.5,1393.1c-24,0-46.6-3.4-67.7-10.4-21.1-6.9-39.5-16.3-55.2-28.2-15.7-11.9-28.1-25.8-37.2-41.8-9.1-16-13.7-33.1-13.7-51.1s4.2-41.9,12.5-60.4c8.3-18.5,20.1-34.5,35.3-47.9,15.2-13.5,33.5-24,54.9-31.6,21.4-7.6,45.2-11.4,71.5-11.4s44.3,3.2,63.7,9.4c19.4,6.3,36.1,14.7,50,25.2,14,10.5,24.8,22.7,32.6,36.5s11.6,28.2,11.6,43.3h-264.2c0,18.2,3.1,35.2,9.2,50.7,6.1,15.6,14.7,29,25.8,40.4,11.1,11.3,24.2,20.2,39.5,26.6s32,9.6,50.2,9.6,29.9-1.9,44-5.7c14.1-3.8,26.8-8.8,38.3-15s21.2-13.3,29.3-21.2,13.7-16.2,17-24.7l20.4,6.9c-5.1,14-13.3,27.1-24.6,39.3-11.3,12.2-24.5,22.9-39.6,32-15.1,9.1-31.6,16.3-49.4,21.7-17.8,5.3-35.8,8-54,8h0ZM-1675.5,1202.9c0-10.3-2.4-19.8-7.1-28.7-4.7-8.8-11.3-16.5-19.6-23-8.3-6.5-18-11.6-29.1-15.3s-23-5.6-35.7-5.6-20.8,1.8-30.5,5.4-18.4,8.7-26,15.1c-7.6,6.5-13.9,14.1-18.9,23s-7.9,18.4-8.8,28.7l175.6.3h0Z"/>
          </g>
        </g>
      </g>
      <g>
        <g>
          <line class="cls-2" x1="1072.6" y1="614.1" x2="1319.9" y2="613.3"/>
          <path class="cls-2" d="M1072.6,620.9c-3.7,0-6.8-3-6.8-6.8,0-3.8,3-6.8,6.8-6.8l247.3-.9h0c3.8,0,6.8,3,6.8,6.8,0,3.8-3,6.8-6.8,6.8l-247.3.9h0,0Z"/>
        </g>
        <g>
          <line class="cls-2" x1="1070.9" y1="661.7" x2="1319.9" y2="660.9"/>
          <path class="cls-2" d="M1070.9,668.5c-3.8,0-6.8-3-6.8-6.8,0-3.8,3-6.8,6.8-6.8l249-.8h0c3.7,0,6.8,3,6.8,6.8,0,3.8-3,6.8-6.8,6.8l-249,.8h0,0Z"/>
        </g>
        <g>
          <line class="cls-2" x1="1070.9" y1="709.3" x2="1319.9" y2="708.5"/>
          <path class="cls-2" d="M1070.9,716.1c-3.8,0-6.8-3-6.8-6.8,0-3.8,3-6.8,6.8-6.8l249-.8h0c3.7,0,6.8,3,6.8,6.8,0,3.8-3,6.8-6.8,6.8l-249,.8h0,0Z"/>
        </g>
        <g>
          <line class="cls-2" x1="1070.9" y1="753.5" x2="1319.9" y2="752.7"/>
          <path class="cls-2" d="M1070.9,760.3c-3.8,0-6.8-3-6.8-6.8,0-3.8,3-6.8,6.8-6.8l249-.9h0c3.7,0,6.8,3,6.8,6.8,0,3.8-3,6.8-6.8,6.8l-249,.9h0,0Z"/>
        </g>
        <g>
          <line class="cls-2" x1="1070.9" y1="796" x2="1319.9" y2="795.1"/>
          <path class="cls-2" d="M1070.9,802.8c-3.8,0-6.8-3-6.8-6.8,0-3.8,3-6.8,6.8-6.8l249-.9h0c3.7,0,6.8,3,6.8,6.8,0,3.8-3,6.8-6.8,6.8l-249,.9h0,0Z"/>
        </g>
        <line class="cls-2" x1="1549.4" y1="615" x2="1800.9" y2="613.3"/>
        <path class="cls-2" d="M1800.9,613.5c-15.7,1.9-31.4,3.3-47.1,4.7l-15.7,1.2c-21,2.5-41.9,1-62.9.9-37-.7-89.3-1.5-125.8-2.3-3.8-.1-4-5.8,0-6.1h0c48.4-1.8,108.7-3.6,157.2-4.9,10.5-.3,21,.6,31.5,1.2,20.7,1.2,42.3,2.8,62.9,4.7"/>
        <path class="cls-2" d="M1801.8,712.3c-21,.6-41.9,1.2-62.9,1.7l-62.9,1.5c-21,.3-41.9,1.9-62.9-.5l-15.7-1.1c-15.7-1.3-31.5-2.6-47.2-4.4-.1,0-.2-.1-.2-.3,0-.1.1-.2.2-.2h0c20.6-2,42.2-3.7,62.9-5.1,10.5-.7,21-1.7,31.5-1.4,21.1.3,72.6,1.6,94.3,2.1,18.4.4,44.3,1.2,62.9,1.7"/>
        <path class="cls-2" d="M1803.5,662c-15.7,1.8-31.4,3.1-47.2,4.4l-15.7,1.1c-21,2.4-41.9.8-62.9.5-37-.9-89.3-2.1-125.8-3.2-3.8-.2-4-5.8,0-6.1h0c48.4-1.5,108.7-2.8,157.2-3.8,10.5-.3,21,.8,31.5,1.4,20.7,1.4,42.3,3.1,62.9,5.1"/>
        <path class="cls-2" d="M1800.1,756.5c-20.7.6-41.4,1.2-62,1.7-20.7.5-73.1,1.8-93.1,2.3-14.4.6-32.1-1.5-46.5-2.4-15.5-1.3-31-2.6-46.5-4.4-.1,0-.2-.1-.2-.3,0-.1.1-.2.2-.2h0c25.4-2.6,52-4.5,77.6-6.2,15.5-1,31,0,46.5.3,21.6.6,72.1,1.6,93.1,2.2l31,.9"/>
        <line class="cls-2" x1="1550.2" y1="796" x2="1800.9" y2="795.1"/>
        <path class="cls-2" d="M1800.9,798.2c-20.9.7-41.8,1.4-62.7,1.9l-62.7,1.7c-20.9.4-41.8,2.1-62.7-.2l-15.7-1.1c-15.7-1.2-31.4-2.5-47-4.2-.1,0-.2-.1-.2-.3,0-.1.1-.2.2-.2h0c20.5-2.1,42-3.9,62.7-5.3,10.4-.7,20.9-1.8,31.3-1.6,21,.2,72.4,1.4,94,1.8,18.3.3,44.2,1,62.7,1.5"/>
        <path class="cls-2" d="M1806,1061.6c-21.4.6-42.8,1.2-64.2,1.7l-64.2,1.5c-21.4.3-42.8,1.9-64.2-.5l-16-1.1c-16.1-1.3-32.1-2.6-48.1-4.4-.1,0-.2-.1-.2-.3,0-.1.1-.2.2-.2h0c21-2,43-3.7,64.2-5.1,10.7-.7,21.4-1.7,32.1-1.4,21.5.3,74.1,1.6,96.2,2.1,18.7.4,45.2,1.1,64.2,1.7"/>
        <path class="cls-2" d="M1806,1110.9c-21.4.6-42.8,1.2-64.2,1.7l-64.2,1.5c-21.4.3-42.8,1.9-64.2-.5l-16-1.1c-16.1-1.3-32.1-2.6-48.1-4.4-.1,0-.2-.1-.2-.3,0-.1.1-.2.2-.2h0c21-2,43-3.7,64.2-5.1,10.7-.7,21.4-1.7,32.1-1.4,21.5.3,74.1,1.6,96.2,2.1,18.7.4,45.2,1.1,64.2,1.7"/>
        <path class="cls-2" d="M1806,1157.5c-16,1.8-32.1,3.1-48.1,4.4l-16,1.1c-21.4,2.4-42.8.8-64.2.5-37.7-.9-91.1-2.1-128.3-3.2-3.8-.2-4-5.8,0-6.1h0c49.4-1.5,110.9-2.9,160.4-3.8,10.7-.3,21.4.8,32.1,1.4,21.1,1.4,43.1,3.1,64.2,5.1"/>
        <path class="cls-2" d="M1806,1206.7c-16,1.8-32.1,3.1-48.1,4.4l-16,1.1c-21.4,2.4-42.8.8-64.2.5-37.7-.9-91.1-2.1-128.3-3.2-3.8-.2-4-5.8,0-6.1h0c49.4-1.5,110.9-2.9,160.4-3.8,10.7-.3,21.4.8,32.1,1.4,21.1,1.4,43.1,3.1,64.2,5.1"/>
        <path class="cls-2" d="M1806,1250.9c-16.1,1.8-32.3,3.1-48.4,4.4l-16.2,1.1c-21.5,2.4-43.1.8-64.6.5-38-.9-91.7-2.1-129.2-3.2-3.8-.2-4-5.8,0-6.1h0c49.7-1.5,111.6-2.9,161.5-3.8,10.8-.3,21.5.8,32.3,1.4,21.3,1.4,43.4,3.1,64.6,5.1"/>
        <line class="cls-2" x1="1056.4" y1="878.4" x2="1800.9" y2="878.4"/>
        <path class="cls-2" d="M1800.9,881.5c-69.8.6-403.4,3.4-465.3,4-43,.6-96.4-1.5-139.6-2.4-46.5-1.2-93.1-2.7-139.6-4.4-.1,0-.3-.1-.2-.3,0-.1.1-.2.2-.2h0c92.6-2.6,186.5-6,279.2-6.6,142.4.9,323.1,2.4,465.3,3.8"/>
        <line class="cls-2" x1="1057.3" y1="838.5" x2="1801.8" y2="838.5"/>
        <path class="cls-2" d="M1801.8,841.5c-69.8.6-403.4,3.4-465.3,4-43,.6-96.4-1.5-139.6-2.4-46.5-1.2-93.1-2.7-139.6-4.4-.1,0-.3-.1-.2-.3,0-.1.1-.2.2-.2h0c92.6-2.6,186.5-6,279.2-6.6,142.4.9,323.1,2.4,465.3,3.8"/>
        <line class="cls-2" x1="1063.2" y1="921" x2="1800.9" y2="922.6"/>
        <path class="cls-2" d="M1800.9,925.7c-69.1.4-399.7,2.5-461.1,2.9-42.6.5-95.5-1.7-138.3-2.7-46.1-1.3-92.2-2.9-138.3-4.7-.1,0-.3-.1-.2-.3,0-.1.1-.2.2-.2h0c91.8-2.4,184.8-5.5,276.6-5.9,141.1,1.2,320.1,3.1,461,4.8"/>
        <line class="cls-2" x1="1063.2" y1="965.1" x2="1800.9" y2="965.1"/>
        <path class="cls-2" d="M1800.9,968.1c-69.1.6-399.7,3.4-461,4-42.6.6-95.5-1.5-138.3-2.4-46.1-1.2-92.2-2.7-138.3-4.4-.1,0-.3-.1-.2-.3,0-.1.1-.2.2-.2h0c91.8-2.6,184.8-6,276.6-6.6,141.1.9,320.1,2.3,461,3.8"/>
        <line class="cls-2" x1="1063.2" y1="1007.6" x2="1800.9" y2="1009.3"/>
        <path class="cls-2" d="M1800.9,1012.3c-69.1.4-399.7,2.5-461.1,2.9-42.6.5-95.5-1.7-138.3-2.7-46.1-1.3-92.2-2.9-138.3-4.7-.1,0-.3-.1-.2-.3,0-.1.1-.2.2-.2h0c91.8-2.4,184.8-5.6,276.6-5.9,141.1,1.2,320.1,3.1,461,4.9"/>
        <g>
          <line class="cls-2" x1="1070.9" y1="1059.5" x2="1319.9" y2="1058.6"/>
          <path class="cls-2" d="M1070.9,1066.3c-3.7,0-6.8-3-6.8-6.8s3-6.8,6.8-6.8l249-.8h0c3.7,0,6.8,3,6.8,6.8,0,3.8-3,6.8-6.8,6.8l-249,.8h0,0Z"/>
        </g>
        <g>
          <line class="cls-2" x1="1070.9" y1="1107.1" x2="1319.9" y2="1107.9"/>
          <path class="cls-2" d="M1070.9,1106.8c25.5-2.5,52.2-4.3,77.8-5.9,15.6-.9,31.1.2,46.7.4,21.6.6,72.4,1.8,93.4,2.5l31.1,1c1.7,0,3,1.5,2.9,3.1,0,1.6-1.4,2.9-3,2.9-20.8.5-41.5,1.1-62.3,1.5-20.8.4-73.4,1.5-93.4,2-14.4.6-32.2-1.6-46.7-2.5-15.6-1.3-31.1-2.7-46.7-4.5-.1,0-.2-.1-.2-.3,0-.1.1-.2.2-.2h0Z"/>
        </g>
        <g>
          <line class="cls-2" x1="1070.9" y1="1258.3" x2="1319.9" y2="1259.2"/>
          <path class="cls-2" d="M1319.9,1266h0l-249-.8c-3.8,0-6.8-3.1-6.8-6.8,0-3.8,3-6.8,6.8-6.8h0l249,.8c3.8,0,6.8,3.1,6.8,6.8s-3,6.8-6.8,6.8h0Z"/>
        </g>
        <g>
          <line class="cls-2" x1="1063.3" y1="1211.6" x2="1325" y2="1211.6"/>
          <path class="cls-2" d="M1063.3,1211.3c21.5-2,43.9-3.7,65.4-5.1,10.9-.7,21.8-1.7,32.7-1.5,21.9.3,75.5,1.6,98.2,2.1,19.1.4,46.1,1.2,65.4,1.7,1.7,0,3,1.4,3,3.1,0,1.6-1.4,2.9-3,3-21.8.6-43.6,1.2-65.4,1.7l-65.4,1.5c-21.8.3-43.6,1.9-65.4-.5l-16.4-1.1c-16.4-1.3-32.7-2.6-49.1-4.4-.1,0-.2-.1-.2-.3,0-.1.1-.2.2-.2h0Z"/>
        </g>
        <g>
          <line class="cls-2" x1="1065" y1="1158.9" x2="1325" y2="1158.9"/>
          <path class="cls-2" d="M1065,1158.6c21.3-2,43.6-3.7,65-5.1,10.8-.7,21.7-1.7,32.5-1.5,21.8.3,75,1.6,97.5,2.1,19,.4,45.8,1.2,65,1.7,1.7,0,3,1.4,3,3.1,0,1.6-1.4,2.9-3,3-21.7.6-43.3,1.2-65,1.7l-65,1.5c-21.7.3-43.3,1.9-65-.5l-16.2-1.1c-16.3-1.3-32.5-2.6-48.8-4.4-.1,0-.2-.1-.2-.3,0-.1.1-.2.2-.2h0Z"/>
        </g>
      </g>
    </g>
  </g>
</svg>